<svg width="70" height="70" viewBox="0 0 70 70" fill="none" xmlns="http://www.w3.org/2000/svg">
<path d="M66.4563 26.3578C66.4563 38.4845 51.997 50.6024 34.5768 50.6024C17.1565 50.6024 2.69727 38.4845 2.69727 26.3578C2.69727 14.2311 17.1565 12.4819 34.5768 12.4819C51.997 12.4819 66.4563 14.2311 66.4563 26.3578Z" fill="#DA2929"/>
<rect x="62.7461" y="26.9878" width="5.06024" height="5.06024" fill="#DA2929"/>
<rect x="62.7461" y="32.0481" width="5.06024" height="5.06024" fill="#DA2929"/>
<rect x="57.6855" y="37.1084" width="5.06024" height="5.06024" fill="#DA2929"/>
<rect x="47.5664" y="42.1685" width="10.1205" height="5.06024" fill="#DA2929"/>
<rect x="37.4453" y="47.2288" width="5.06024" height="5.06024" fill="#DA2929"/>
<rect x="32.3848" y="47.2288" width="5.06024" height="5.06024" fill="#DA2929"/>
<rect x="42.5059" y="47.2288" width="5.06024" height="5.06024" fill="#DA2929"/>
<rect x="47.5664" y="47.2288" width="5.06024" height="5.06024" fill="#DA2929"/>
<rect x="62.7461" y="21.9277" width="5.06024" height="5.06024" fill="#DA2929"/>
<rect x="2.02344" y="26.9878" width="5.06024" height="5.06024" fill="#DA2929"/>
<rect x="2.02344" y="32.0481" width="5.06024" height="5.06024" fill="#DA2929"/>
<rect x="7.08398" y="37.1084" width="5.06024" height="5.06024" fill="#DA2929"/>
<rect x="12.1445" y="42.1685" width="8.09639" height="5.06024" fill="#DA2929"/>
<rect x="22.2637" y="47.2288" width="5.06024" height="5.06024" fill="#DA2929"/>
<rect x="17.2051" y="47.2288" width="5.06024" height="5.06024" fill="#DA2929"/>
<rect x="27.3242" y="47.2288" width="5.06024" height="5.06024" fill="#DA2929"/>
<rect x="2.02344" y="21.9277" width="5.06024" height="5.06024" fill="#DA2929"/>
<rect x="12.1445" y="11.8071" width="5.06024" height="5.06024" fill="#DA2929"/>
<rect x="2.02344" y="16.8674" width="5.06024" height="5.06024" fill="#DA2929"/>
<rect x="7.08398" y="11.8071" width="5.06024" height="7.08434" fill="#DA2929"/>
<rect x="17.2051" y="11.8071" width="5.06024" height="5.06024" fill="#DA2929"/>
<rect x="22.2637" y="11.8071" width="5.06024" height="5.06024" fill="#DA2929"/>
<rect x="27.3242" y="11.8071" width="5.06024" height="5.06024" fill="#DA2929"/>
<rect x="32.3848" y="11.8071" width="5.06024" height="5.06024" fill="#DA2929"/>
<rect x="52.625" y="11.8071" width="5.06024" height="5.06024" fill="#DA2929"/>
<rect x="62.7461" y="16.8674" width="5.06024" height="5.06024" fill="#DA2929"/>
<rect x="37.4453" y="11.8071" width="5.06024" height="5.06024" fill="#DA2929"/>
<rect x="42.5059" y="11.8071" width="5.06024" height="5.06024" fill="#DA2929"/>
<rect x="47.5664" y="11.8071" width="5.06024" height="5.06024" fill="#DA2929"/>
<rect x="57.6855" y="11.8071" width="5.06024" height="7.08434" fill="#DA2929"/>
<rect x="14.8418" y="7.42163" width="40.1446" height="6.74699" fill="#DA2929"/>
<rect x="37.4453" y="6.74707" width="5.06024" height="5.06024" fill="#94AB5C"/>
<rect x="42.5059" y="6.74707" width="5.06024" height="5.06024" fill="#94AB5C"/>
<rect x="47.5664" y="1.68677" width="5.06024" height="5.06024" fill="#94AB5C"/>
<rect x="32.3867" y="6.74707" width="5.06024" height="5.06024" fill="#94AB5C"/>
<rect x="37.4453" y="11.8071" width="5.06024" height="5.06024" fill="#94AB5C"/>
<rect x="42.5059" y="11.8071" width="5.06024" height="5.06024" fill="#94AB5C"/>
<rect x="47.5664" y="16.8674" width="5.06024" height="5.06024" fill="#94AB5C"/>
<rect x="42.5059" y="16.8674" width="5.06024" height="5.06024" fill="#94AB5C"/>
<rect x="32.3867" y="11.8071" width="5.06024" height="5.06024" fill="#94AB5C"/>
<rect x="27.3262" y="11.8071" width="5.06024" height="5.06024" fill="#94AB5C"/>
<rect x="22.2656" y="16.8674" width="5.06024" height="5.06024" fill="#94AB5C"/>
<rect x="27.3262" y="6.74707" width="5.06024" height="5.06024" fill="#94AB5C"/>
<rect x="17.2051" y="1.68677" width="5.06024" height="5.06024" fill="#94AB5C"/>
<rect x="22.2656" y="6.74707" width="5.06024" height="5.06024" fill="#94AB5C"/>
<rect x="22.2656" y="1.68677" width="5.06024" height="5.06024" fill="#94AB5C"/>
<rect x="32.3867" y="1.68677" width="5.06024" height="5.06024" fill="#94AB5C"/>
<rect x="24.8359" y="37.0618" width="4.96705" height="5.15809" fill="#504439"/>
<rect x="22.1602" y="52.345" width="4.96705" height="4.96705" fill="#504439"/>
<rect x="44.5117" y="52.345" width="5.15809" height="4.96705" fill="#504439"/>
<rect x="22.1602" y="57.312" width="4.96705" height="5.15809" fill="#504439"/>
<rect x="44.5117" y="57.312" width="5.15809" height="5.15809" fill="#504439"/>
<rect x="20.6328" y="60.7507" width="6.49537" height="4.96705" fill="#504439"/>
<rect x="42.9844" y="60.7507" width="6.68641" height="4.96705" fill="#504439"/>
<rect x="20.6328" y="64.1897" width="12.0355" height="4.96705" fill="#504439"/>
<rect x="42.9844" y="64.1897" width="12.2266" height="4.96705" fill="#504439"/>
<rect x="30.9492" y="8.40576" width="6.30433" height="6.49537" fill="#285530"/>
<rect x="36.6797" y="8.40576" width="6.11329" height="3.62977" fill="#285530"/>
<rect x="10.457" y="13.4941" width="2.53012" height="2.53012" fill="#FFFFE5"/>
<rect x="7.92773" y="16.0242" width="2.53012" height="2.53012" fill="#FFFFE5"/>
<rect x="5.39648" y="18.5542" width="2.53012" height="2.53012" fill="#FFFFE5"/>
<rect x="2.86719" y="21.0845" width="2.53012" height="2.53012" fill="#FFFFE5"/>
<rect x="2.86719" y="23.6145" width="2.53012" height="2.53012" fill="#FFFFE5"/>
<rect x="2.86719" y="26.1445" width="2.53012" height="2.53012" fill="#FFFFE5"/>
<rect x="2.86719" y="28.6748" width="2.53012" height="2.53012" fill="#FFFFE5"/>
<rect x="5.39648" y="31.2048" width="2.53012" height="2.53012" fill="#FFFFE5"/>
<rect x="5.39648" y="33.7349" width="2.53012" height="2.53012" fill="#FFFFE5"/>
<rect x="7.92773" y="36.2651" width="2.53012" height="2.53012" fill="#FFFFE5"/>
<rect x="12.9883" y="13.4941" width="2.53012" height="2.53012" fill="#FFFFE5"/>
<rect x="15.5176" y="10.9639" width="2.53012" height="2.53012" fill="#FFFFE5"/>
<rect x="22.1602" y="16.8115" width="2.67457" height="2.67457" fill="#FFFFE5"/>
<rect x="20.25" y="62.6611" width="2.67457" height="6.49537" fill="#FFFFE5"/>
<rect x="42.9844" y="62.6611" width="2.67457" height="6.49537" fill="#FFFFE5"/>
<rect x="32.4766" y="5.54028" width="2.67457" height="2.48353" fill="#FFFFE5"/>
<rect x="42.4102" y="19.4861" width="5.15809" height="2.48353" fill="#FFFFE5"/>
<rect x="17.1934" y="1.71948" width="7.64162" height="2.48353" fill="#FFFFE5"/>
<path d="M39.8906 51.0241H50.3485C50.9669 48.6346 54.0256 42.9278 61.3123 39.2169C68.5991 35.5061 65.979 27.2691 63.7581 23.6145C67.1991 32.7229 49.2802 45.6828 39.8906 51.0241Z" fill="#8D1E20"/>
<rect x="40.8184" y="48.9158" width="2.53012" height="2.53012" fill="#8D1E20"/>
<rect x="43.3496" y="48.9158" width="2.53012" height="2.53012" fill="#8D1E20"/>
<rect x="45.8789" y="48.9158" width="2.53012" height="2.53012" fill="#8D1E20"/>
<rect x="48.4102" y="48.9158" width="2.53012" height="2.53012" fill="#8D1E20"/>
<rect x="38.2891" y="48.9158" width="2.53012" height="2.53012" fill="#8D1E20"/>
<rect x="63.5898" y="23.6145" width="2.53012" height="2.53012" fill="#8D1E20"/>
<rect x="63.5898" y="26.1445" width="2.53012" height="2.53012" fill="#8D1E20"/>
<rect x="61.0605" y="28.6748" width="2.53012" height="2.53012" fill="#8D1E20"/>
<rect x="61.0605" y="31.2048" width="2.53012" height="2.53012" fill="#8D1E20"/>
<rect x="58.5293" y="33.7349" width="2.53012" height="2.53012" fill="#8D1E20"/>
<rect x="56" y="36.2651" width="2.53012" height="2.53012" fill="#8D1E20"/>
<rect x="53.4707" y="38.7952" width="2.53012" height="2.53012" fill="#8D1E20"/>
<rect x="50.9395" y="41.3252" width="2.53012" height="2.53012" fill="#8D1E20"/>
<rect x="48.4102" y="43.8555" width="2.53012" height="2.53012" fill="#8D1E20"/>
<rect x="43.3496" y="46.3855" width="2.53012" height="2.53012" fill="#8D1E20"/>
<rect x="45.8789" y="46.3855" width="2.53012" height="2.53012" fill="#8D1E20"/>
<rect x="63.5898" y="28.6748" width="2.53012" height="2.53012" fill="#8D1E20"/>
<rect x="63.5898" y="31.2048" width="2.53012" height="2.53012" fill="#8D1E20"/>
<rect x="63.5898" y="33.7349" width="2.53012" height="2.53012" fill="#8D1E20"/>
<rect x="63.5898" y="36.2651" width="2.53012" height="2.53012" fill="#8D1E20"/>
<rect x="61.0605" y="36.2651" width="2.53012" height="2.53012" fill="#8D1E20"/>
<rect x="61.0605" y="38.7952" width="2.53012" height="2.53012" fill="#8D1E20"/>
<rect x="58.5293" y="38.7952" width="2.53012" height="2.53012" fill="#8D1E20"/>
<rect x="56" y="41.3252" width="2.53012" height="2.53012" fill="#8D1E20"/>
<rect x="53.4707" y="43.8555" width="2.53012" height="2.53012" fill="#8D1E20"/>
<rect x="50.9395" y="46.3855" width="2.53012" height="2.53012" fill="#8D1E20"/>
<rect x="44.3223" y="37.0618" width="5.15809" height="5.15809" fill="#504439"/>
<rect x="33.8145" y="16.8115" width="8.59682" height="2.67457" fill="#8D1E20"/>
<rect x="51.1992" y="21.9697" width="3.62977" height="2.48353" fill="#8D1E20"/>
<rect x="44.5117" y="52.345" width="5.15809" height="2.48353" fill="#2E2822"/>
<rect x="50.0527" y="66.6731" width="5.15809" height="2.48353" fill="#2E2822"/>
<rect x="22.1602" y="52.345" width="4.96705" height="2.48353" fill="#2E2822"/>
<rect x="27.7012" y="66.6731" width="4.96705" height="2.48353" fill="#2E2822"/>
<rect x="47.5684" y="14.3281" width="3.62977" height="2.48353" fill="#8D1E20"/>
<rect x="39.6387" y="52.3105" width="6.07229" height="3.52089" fill="#504439"/>
<rect x="24.627" y="52.3105" width="6.07229" height="3.52089" fill="#504439"/>
<rect x="39.6387" y="52.3105" width="6.07229" height="2.51492" fill="#2E2822"/>
<rect x="24.627" y="52.3105" width="6.07229" height="2.51492" fill="#2E2822"/>
<rect x="19.1367" y="0.167725" width="2.39211" height="2.53169" fill="#504439"/>
<rect x="16.7441" y="0.167725" width="2.39211" height="2.53169" fill="#504439"/>
<rect x="21.5293" y="0.167725" width="2.39211" height="2.53169" fill="#504439"/>
<rect x="23.9219" y="0.167725" width="2.39211" height="2.53169" fill="#504439"/>
<rect x="16.7441" y="2.69922" width="2.39211" height="2.53169" fill="#504439"/>
<rect x="14.3379" y="5.19751" width="2.6988" height="2.51492" fill="#504439"/>
<rect x="11.9766" y="7.7124" width="2.6988" height="4.3592" fill="#504439"/>
<rect x="11.9609" y="10.2944" width="2.39211" height="2.53169" fill="#504439"/>
<rect x="7.17578" y="10.2944" width="2.39211" height="2.53169" fill="#504439"/>
<rect x="9.56836" y="10.2944" width="2.39211" height="2.53169" fill="#504439"/>
<rect x="4.78516" y="10.2944" width="2.39211" height="2.53169" fill="#504439"/>
<rect x="4.78516" y="12.8262" width="2.39211" height="2.53169" fill="#504439"/>
<rect x="4.78516" y="15.3579" width="2.39211" height="2.53169" fill="#504439"/>
<rect x="2.39258" y="15.3579" width="2.39211" height="2.53169" fill="#504439"/>
<rect y="15.3579" width="2.39211" height="2.53169" fill="#504439"/>
<rect y="17.8894" width="2.39211" height="2.53169" fill="#504439"/>
<rect y="20.4211" width="2.39211" height="2.53169" fill="#504439"/>
<rect y="22.9529" width="2.39211" height="2.53169" fill="#504439"/>
<rect y="25.4846" width="2.39211" height="2.53169" fill="#504439"/>
<rect y="28.0164" width="2.39211" height="2.53169" fill="#504439"/>
<rect y="30.5479" width="2.39211" height="2.53169" fill="#504439"/>
<rect y="33.0796" width="2.39211" height="2.53169" fill="#504439"/>
<rect y="35.6113" width="2.39211" height="2.53169" fill="#504439"/>
<rect x="2.39258" y="35.6113" width="2.39211" height="2.53169" fill="#504439"/>
<rect x="4.78516" y="35.6113" width="2.39211" height="2.53169" fill="#504439"/>
<rect x="5.73438" y="38.0593" width="2.39211" height="2.53169" fill="#504439"/>
<rect x="5.73438" y="40.5908" width="2.39211" height="2.53169" fill="#504439"/>
<rect x="7.75977" y="40.7417" width="4.21687" height="2.51492" fill="#504439"/>
<rect x="9.56836" y="43.2063" width="2.39211" height="2.53169" fill="#504439"/>
<rect x="11.9609" y="45.738" width="2.39211" height="2.53169" fill="#504439"/>
<rect x="15.8555" y="52.1428" width="8.77108" height="2.51492" fill="#504439"/>
<rect x="30.6992" y="52.3105" width="9.10843" height="2.51492" fill="#504439"/>
<rect x="45.373" y="52.1428" width="7.08434" height="2.51492" fill="#504439"/>
<rect x="53.6387" y="47.2805" width="5.39759" height="2.51492" fill="#504439"/>
<rect x="52.2891" y="47.2805" width="2.36145" height="6.03582" fill="#504439"/>
<rect x="62.4102" y="38.7297" width="2.36145" height="3.52089" fill="#504439"/>
<rect x="65.9512" y="37.2209" width="2.36145" height="3.52089" fill="#504439"/>
<rect x="67.6387" y="32.6941" width="2.36145" height="5.53283" fill="#504439"/>
<rect x="66.627" y="29.676" width="2.36145" height="3.18557" fill="#504439"/>
<rect x="62.4102" y="12.0715" width="2.36145" height="5.19751" fill="#504439"/>
<rect x="54.6504" y="7.04175" width="2.36145" height="5.19751" fill="#504439"/>
<rect x="52.2891" y="1.17358" width="2.36145" height="6.70647" fill="#504439"/>
<rect x="45.0371" y="1.00586" width="2.36145" height="6.03582" fill="#504439"/>
<rect x="29.8555" y="1.17358" width="2.36145" height="6.03582" fill="#504439"/>
<rect x="27.1562" y="1.00586" width="1.85542" height="6.03582" fill="#504439"/>
<rect x="37.2773" y="1.00586" width="2.36145" height="6.03582" fill="#504439"/>
<rect x="62.5781" y="15.2573" width="6.40964" height="2.01194" fill="#504439"/>
<rect x="55.832" y="10.2273" width="7.59036" height="2.01194" fill="#504439"/>
<rect x="47.3984" y="0.167725" width="5.06024" height="2.01194" fill="#504439"/>
<rect x="37.2773" y="5.02979" width="7.75904" height="2.01194" fill="#504439"/>
<rect x="31.7109" width="6.24096" height="2.01194" fill="#504439"/>
<rect x="27.1562" y="5.19751" width="3.03614" height="2.01194" fill="#504439"/>
<rect x="25.8066" y="0.167725" width="2.19277" height="2.01194" fill="#504439"/>
<rect x="67.6387" y="17.1016" width="2.36145" height="12.5746" fill="#504439"/>
<rect x="57.5176" y="42.2507" width="2.36145" height="6.03582" fill="#504439"/>
<rect x="14.3379" y="46.9453" width="3.03614" height="5.36517" fill="#504439"/>
<rect x="59.0371" y="42.2507" width="4.38554" height="1.67662" fill="#504439"/>
<rect x="63.4219" y="38.7297" width="4.38554" height="1.67662" fill="#504439"/>
</svg>
