<svg width="633" height="113" viewBox="0 0 633 113" fill="none" xmlns="http://www.w3.org/2000/svg">
<path d="M89.0112 28.3984C185.448 3.43956 290.771 10.2049 390.511 10.5749C399.057 10.3075 426.732 6.72886 427.346 16.4183C428.309 31.5975 459.296 26.1319 469.977 26.1319C516.102 26.1319 580.229 16.8503 620.786 40.8103C665.732 67.3632 566.593 84.7816 554.499 86.3564C471.918 97.1094 387.693 104.208 304.259 106.323C222.925 108.385 135.321 110.192 55.4981 94.0193C42.6328 91.4128 4.51784 85.6943 11.8816 66.9291C20.7751 44.2659 67.251 34.0302 89.0112 28.3984Z" fill="white" fill-opacity="0.62"/>
<rect x="142.377" y="11.2985" width="12.898" height="11.2983" fill="white" fill-opacity="0.62"/>
<rect x="77.8877" y="22.5964" width="12.898" height="11.2983" fill="white" fill-opacity="0.62"/>
<rect x="90.7856" y="22.5964" width="12.898" height="11.2983" fill="white" fill-opacity="0.62"/>
<rect x="103.684" y="22.5964" width="12.898" height="11.2983" fill="white" fill-opacity="0.62"/>
<rect x="116.582" y="11.2985" width="12.898" height="11.2983" fill="white" fill-opacity="0.62"/>
<rect x="129.479" y="11.2985" width="12.898" height="11.2983" fill="white" fill-opacity="0.62"/>
<rect x="155.275" y="11.2985" width="12.898" height="11.2983" fill="white" fill-opacity="0.62"/>
<rect x="168.173" y="11.2985" width="12.898" height="11.2983" fill="white" fill-opacity="0.62"/>
<rect x="181.071" y="11.2985" width="12.898" height="11.2983" fill="white" fill-opacity="0.62"/>
<rect x="193.969" y="11.2985" width="12.898" height="11.2983" fill="white" fill-opacity="0.62"/>
<rect x="206.867" width="12.898" height="11.2983" fill="white" fill-opacity="0.62"/>
<rect x="219.765" width="12.898" height="11.2983" fill="white" fill-opacity="0.62"/>
<rect x="232.663" width="12.898" height="11.2983" fill="white" fill-opacity="0.62"/>
<rect x="245.561" width="12.898" height="11.2983" fill="white" fill-opacity="0.62"/>
<rect x="258.459" width="12.898" height="11.2983" fill="white" fill-opacity="0.62"/>
<rect x="271.357" width="12.898" height="11.2983" fill="white" fill-opacity="0.62"/>
<rect x="284.255" width="12.898" height="11.2983" fill="white" fill-opacity="0.62"/>
<rect x="297.153" width="12.898" height="11.2983" fill="white" fill-opacity="0.62"/>
<rect x="310.051" width="12.898" height="11.2983" fill="white" fill-opacity="0.62"/>
<rect x="322.949" width="12.898" height="11.2983" fill="white" fill-opacity="0.62"/>
<rect x="335.847" width="12.898" height="11.2983" fill="white" fill-opacity="0.62"/>
<rect x="348.745" width="12.898" height="11.2983" fill="white" fill-opacity="0.62"/>
<rect x="361.643" width="12.898" height="11.2983" fill="white" fill-opacity="0.62"/>
<rect x="374.541" width="12.898" height="11.2983" fill="white" fill-opacity="0.62"/>
<rect x="387.439" width="12.898" height="11.2983" fill="white" fill-opacity="0.62"/>
<rect x="39.1938" y="33.8949" width="12.898" height="11.2983" fill="white" fill-opacity="0.62"/>
<rect x="26.2959" y="45.1931" width="12.898" height="11.2983" fill="white" fill-opacity="0.62"/>
<rect x="13.3979" y="56.4913" width="12.898" height="11.2983" fill="white" fill-opacity="0.62"/>
<rect x="13.3979" y="45.1931" width="12.898" height="11.2983" fill="white" fill-opacity="0.62"/>
<rect x="52.0918" y="33.8949" width="12.898" height="11.2983" fill="white" fill-opacity="0.62"/>
<rect x="64.9897" y="22.5964" width="12.898" height="11.2983" fill="white" fill-opacity="0.62"/>
<rect x="0.5" y="56.4913" width="12.898" height="11.2983" fill="white" fill-opacity="0.62"/>
<rect x="0.5" y="67.7898" width="12.898" height="11.2983" fill="white" fill-opacity="0.62"/>
<rect x="13.3979" y="79.088" width="12.898" height="11.2983" fill="white" fill-opacity="0.62"/>
<rect x="26.2959" y="79.088" width="12.898" height="11.2983" fill="white" fill-opacity="0.62"/>
<rect x="39.1938" y="90.3865" width="12.898" height="11.2983" fill="white" fill-opacity="0.62"/>
<rect x="52.0918" y="90.3865" width="12.898" height="11.2983" fill="white" fill-opacity="0.62"/>
<rect x="64.9897" y="90.3865" width="12.898" height="11.2983" fill="white" fill-opacity="0.62"/>
<rect x="181.071" y="101.684" width="12.898" height="11.2983" fill="white" fill-opacity="0.62"/>
<rect x="245.561" y="101.684" width="12.898" height="11.2983" fill="white" fill-opacity="0.62"/>
<rect x="77.8877" y="90.3865" width="12.898" height="11.2983" fill="white" fill-opacity="0.62"/>
<rect x="90.7856" y="90.3865" width="12.898" height="11.2983" fill="white" fill-opacity="0.62"/>
<rect x="103.684" y="101.684" width="12.898" height="11.2983" fill="white" fill-opacity="0.62"/>
<rect x="116.582" y="101.684" width="12.898" height="11.2983" fill="white" fill-opacity="0.62"/>
<rect x="129.479" y="101.684" width="12.898" height="11.2983" fill="white" fill-opacity="0.62"/>
<rect x="142.377" y="101.684" width="12.898" height="11.2983" fill="white" fill-opacity="0.62"/>
<rect x="155.275" y="101.684" width="12.898" height="11.2983" fill="white" fill-opacity="0.62"/>
<rect x="168.173" y="101.684" width="12.898" height="11.2983" fill="white" fill-opacity="0.62"/>
<rect x="193.969" y="101.684" width="12.898" height="11.2983" fill="white" fill-opacity="0.62"/>
<rect x="206.867" y="101.684" width="12.898" height="11.2983" fill="white" fill-opacity="0.62"/>
<rect x="219.765" y="101.684" width="12.898" height="11.2983" fill="white" fill-opacity="0.62"/>
<rect x="232.663" y="101.684" width="12.898" height="11.2983" fill="white" fill-opacity="0.62"/>
<rect x="258.459" y="101.684" width="12.898" height="11.2983" fill="white" fill-opacity="0.62"/>
<rect x="271.357" y="101.684" width="12.898" height="11.2983" fill="white" fill-opacity="0.62"/>
<rect x="284.255" y="101.684" width="12.898" height="11.2983" fill="white" fill-opacity="0.62"/>
<rect x="297.153" y="101.684" width="12.898" height="11.2983" fill="white" fill-opacity="0.62"/>
<rect x="464.827" y="90.3865" width="12.898" height="11.2983" fill="white" fill-opacity="0.62"/>
<rect x="310.051" y="101.684" width="12.898" height="11.2983" fill="white" fill-opacity="0.62"/>
<rect x="322.949" y="101.684" width="12.898" height="11.2983" fill="white" fill-opacity="0.62"/>
<rect x="335.847" y="101.684" width="12.898" height="11.2983" fill="white" fill-opacity="0.62"/>
<rect x="348.745" y="101.684" width="12.898" height="11.2983" fill="white" fill-opacity="0.62"/>
<rect x="361.643" y="101.684" width="12.898" height="11.2983" fill="white" fill-opacity="0.62"/>
<rect x="374.541" y="101.684" width="12.898" height="11.2983" fill="white" fill-opacity="0.62"/>
<rect x="387.439" y="101.684" width="12.898" height="11.2983" fill="white" fill-opacity="0.62"/>
<rect x="400.337" y="90.3865" width="12.898" height="11.2983" fill="white" fill-opacity="0.62"/>
<rect x="413.235" y="90.3865" width="12.898" height="11.2983" fill="white" fill-opacity="0.62"/>
<rect x="426.133" y="90.3865" width="12.898" height="11.2983" fill="white" fill-opacity="0.62"/>
<rect x="439.031" y="90.3865" width="12.898" height="11.2983" fill="white" fill-opacity="0.62"/>
<rect x="451.929" y="90.3865" width="12.898" height="11.2983" fill="white" fill-opacity="0.62"/>
<rect x="477.725" y="90.3865" width="12.898" height="11.2983" fill="white" fill-opacity="0.62"/>
<rect x="490.623" y="90.3865" width="12.898" height="11.2983" fill="white" fill-opacity="0.62"/>
<rect x="503.521" y="90.3865" width="12.898" height="11.2983" fill="white" fill-opacity="0.62"/>
<rect x="516.418" y="79.088" width="12.898" height="11.2983" fill="white" fill-opacity="0.62"/>
<rect x="529.316" y="79.088" width="12.898" height="11.2983" fill="white" fill-opacity="0.62"/>
<rect x="542.214" y="79.088" width="12.898" height="11.2983" fill="white" fill-opacity="0.62"/>
<rect x="619.602" y="45.1931" width="12.898" height="11.2983" fill="white" fill-opacity="0.62"/>
<rect x="619.602" y="56.4913" width="12.898" height="11.2983" fill="white" fill-opacity="0.62"/>
<rect x="606.704" y="67.7898" width="12.898" height="11.2983" fill="white" fill-opacity="0.62"/>
<rect x="555.112" y="79.088" width="12.898" height="11.2983" fill="white" fill-opacity="0.62"/>
<rect x="568.01" y="79.088" width="12.898" height="11.2983" fill="white" fill-opacity="0.62"/>
<rect x="580.908" y="79.088" width="12.898" height="11.2983" fill="white" fill-opacity="0.62"/>
<rect x="593.806" y="67.7898" width="12.898" height="11.2983" fill="white" fill-opacity="0.62"/>
<rect x="619.602" y="33.8949" width="12.898" height="11.2983" fill="white" fill-opacity="0.62"/>
<rect x="580.908" y="22.5964" width="12.898" height="11.2983" fill="white" fill-opacity="0.62"/>
<rect x="606.704" y="33.8949" width="12.898" height="11.2983" fill="white" fill-opacity="0.62"/>
<rect x="464.827" y="22.5964" width="12.898" height="11.2983" fill="white" fill-opacity="0.62"/>
<rect x="477.725" y="22.5964" width="12.898" height="11.2983" fill="white" fill-opacity="0.62"/>
<rect x="490.623" y="22.5964" width="12.898" height="11.2983" fill="white" fill-opacity="0.62"/>
<rect x="503.521" y="22.5964" width="12.898" height="11.2983" fill="white" fill-opacity="0.62"/>
<rect x="516.418" y="22.5964" width="12.898" height="11.2983" fill="white" fill-opacity="0.62"/>
<rect x="529.316" y="22.5964" width="12.898" height="11.2983" fill="white" fill-opacity="0.62"/>
<rect x="542.214" y="22.5964" width="12.898" height="11.2983" fill="white" fill-opacity="0.62"/>
<rect x="555.112" y="22.5964" width="12.898" height="11.2983" fill="white" fill-opacity="0.62"/>
<rect x="568.01" y="22.5964" width="12.898" height="11.2983" fill="white" fill-opacity="0.62"/>
<rect x="593.806" y="22.5964" width="12.898" height="11.2983" fill="white" fill-opacity="0.62"/>
<rect x="426.133" y="11.2985" width="12.898" height="11.2983" fill="white" fill-opacity="0.62"/>
<rect x="426.133" y="22.5964" width="12.898" height="11.2983" fill="white" fill-opacity="0.62"/>
<rect x="439.031" y="22.5964" width="12.898" height="11.2983" fill="white" fill-opacity="0.62"/>
<rect x="451.929" y="22.5964" width="12.898" height="11.2983" fill="white" fill-opacity="0.62"/>
<rect x="400.337" width="12.898" height="11.2983" fill="white" fill-opacity="0.62"/>
<rect x="413.235" width="12.898" height="11.2983" fill="white" fill-opacity="0.62"/>
</svg>
