<svg width="260" height="261" viewBox="0 0 260 261" fill="none" xmlns="http://www.w3.org/2000/svg">
<g filter="url(#filter0_ddd_1_95397)">
<path d="M131.506 126.004H133.192V126.694H133.855V127.511H134.639V128.515H135V131.652H134.639V132.531H133.855V133.473H133.192V134.163H131.506V135.167H128.494V134.163H126.687V133.473H126.024V132.531H125.401V131.652H125V128.515H125.401V127.511H126.024V126.694H126.687V126.004H128.494V125H131.506V126.004Z" fill="#FFD877" fill-opacity="0.95"/>
<path d="M131.983 127.886H132.204V128.439H132.776V128.725H133.23V130.974H132.295V131.377H131.983V132.381H129.385V131.979H128.969V131.075H128.733V130.834H128.033V130.689H127.93V128.886H128.241V128.465H128.969V128.163H129.073V127.761H129.385V127.159H131.983V127.886Z" fill="#FFFD77"/>
</g>
<defs>
<filter id="filter0_ddd_1_95397" x="0" y="0" width="260" height="260.167" filterUnits="userSpaceOnUse" color-interpolation-filters="sRGB">
<feFlood flood-opacity="0" result="BackgroundImageFix"/>
<feColorMatrix in="SourceAlpha" type="matrix" values="0 0 0 0 0 0 0 0 0 0 0 0 0 0 0 0 0 0 127 0" result="hardAlpha"/>
<feOffset/>
<feGaussianBlur stdDeviation="62.5"/>
<feComposite in2="hardAlpha" operator="out"/>
<feColorMatrix type="matrix" values="0 0 0 0 1 0 0 0 0 0.760784 0 0 0 0 0.466667 0 0 0 1 0"/>
<feBlend mode="normal" in2="BackgroundImageFix" result="effect1_dropShadow_1_95397"/>
<feColorMatrix in="SourceAlpha" type="matrix" values="0 0 0 0 0 0 0 0 0 0 0 0 0 0 0 0 0 0 127 0" result="hardAlpha"/>
<feOffset/>
<feGaussianBlur stdDeviation="62.5"/>
<feComposite in2="hardAlpha" operator="out"/>
<feColorMatrix type="matrix" values="0 0 0 0 1 0 0 0 0 0.760784 0 0 0 0 0.466667 0 0 0 1 0"/>
<feBlend mode="normal" in2="effect1_dropShadow_1_95397" result="effect2_dropShadow_1_95397"/>
<feColorMatrix in="SourceAlpha" type="matrix" values="0 0 0 0 0 0 0 0 0 0 0 0 0 0 0 0 0 0 127 0" result="hardAlpha"/>
<feOffset/>
<feGaussianBlur stdDeviation="62.5"/>
<feComposite in2="hardAlpha" operator="out"/>
<feColorMatrix type="matrix" values="0 0 0 0 1 0 0 0 0 0.760784 0 0 0 0 0.466667 0 0 0 1 0"/>
<feBlend mode="normal" in2="effect2_dropShadow_1_95397" result="effect3_dropShadow_1_95397"/>
<feBlend mode="normal" in="SourceGraphic" in2="effect3_dropShadow_1_95397" result="shape"/>
</filter>
</defs>
</svg>
