<svg width="77" height="118" viewBox="0 0 77 118" fill="none" xmlns="http://www.w3.org/2000/svg">
<rect y="38" width="77" height="3" fill="#41893F"/>
<rect x="16" y="38" width="4" height="3" fill="#073018"/>
<rect x="51" y="38" width="4" height="3" fill="#073018"/>
<rect x="42" y="38" width="4" height="3" fill="#073018"/>
<rect x="20" y="38" width="4" height="3" fill="#073018"/>
<rect x="11" width="6" height="6" fill="#41893F"/>
<rect x="33" y="5" width="8" height="6" fill="#41893F"/>
<rect x="25" y="3" width="8" height="6" fill="#41893F"/>
<rect x="60" width="6" height="6" fill="#41893F"/>
<rect x="40" y="1" width="11" height="6" fill="#41893F"/>
<rect x="12" y="1" width="4" height="5" fill="#A1CB3C"/>
<rect y="6" width="77" height="33" fill="#A1CB3C"/>
<rect x="1" y="1" width="6" height="6" fill="#41893F"/>
<rect x="50" y="6" width="10" height="5" fill="#41893F"/>
<rect x="69" y="20" width="5" height="5" fill="#41893F"/>
<rect x="17" y="5" width="5" height="5" fill="#073018"/>
<rect x="16" y="2" width="5" height="5" fill="#41893F"/>
<rect x="39" y="6" width="5" height="5" fill="#41893F"/>
<rect x="64" y="2" width="5" height="10" fill="#41893F"/>
<rect x="1" y="6" width="5" height="5" fill="#41893F"/>
<rect x="22" y="10" width="5" height="5" fill="#41893F"/>
<rect x="33" y="22" width="6" height="6" fill="#41893F"/>
<rect x="47" y="2" width="4" height="5" fill="#073018"/>
<rect x="6" y="6" width="6" height="5" fill="#073018"/>
<rect x="42" y="7" width="2" height="5" fill="#073018"/>
<rect x="60" y="1" width="4" height="5" fill="#A1CB3C"/>
<rect x="69" y="5" width="8" height="5" fill="#073018"/>
<rect y="41" width="77" height="77" fill="#5A413B"/>
<rect x="8" y="41" width="8" height="5" fill="#3B211D"/>
<rect x="51" y="41" width="5" height="5" fill="#3B211D"/>
<rect x="21" y="56" width="8" height="5" fill="#3B211D"/>
<rect x="13" y="89" width="8" height="5" fill="#3B211D"/>
<rect x="56" y="51" width="5" height="5" fill="#3B211D"/>
<rect x="8" y="68" width="8" height="5" fill="#3B211D"/>
<rect x="32" y="69" width="8" height="5" fill="#3B211D"/>
<rect x="27" y="69" width="5" height="5" fill="#502F2A"/>
<rect x="8" y="63" width="5" height="5" fill="#502F2A"/>
<rect x="47" y="76" width="5" height="5" fill="#502F2A"/>
<rect x="32" y="97" width="5" height="5" fill="#502F2A"/>
<rect x="32" y="92" width="5" height="5" fill="#502F2A"/>
<rect x="37" y="87" width="5" height="5" fill="#502F2A"/>
<rect x="56" y="46" width="5" height="5" fill="#502F2A"/>
<rect x="56" y="56" width="5" height="5" fill="#502F2A"/>
<rect x="24" y="46" width="5" height="5" fill="#502F2A"/>
<rect x="19" y="113" width="5" height="5" fill="#502F2A"/>
<rect y="108" width="5" height="5" fill="#502F2A"/>
<rect x="72" y="108" width="5" height="5" fill="#502F2A"/>
<rect x="68" y="88" width="5" height="5" fill="#502F2A"/>
<rect x="60" y="94" width="5" height="5" fill="#502F2A"/>
<rect x="8" y="97" width="5" height="5" fill="#502F2A"/>
<rect x="51" y="56" width="5" height="5" fill="#502F2A"/>
<rect x="29" y="41" width="10" height="5" fill="#502F2A"/>
<rect x="61" y="41" width="16" height="5" fill="#502F2A"/>
<rect x="16" y="51" width="5" height="5" fill="#6D5D5A"/>
<rect x="67" y="68" width="5" height="5" fill="#6D5D5A"/>
<rect x="27" y="92" width="5" height="5" fill="#6D5D5A"/>
<rect x="55" y="94" width="5" height="5" fill="#6D5D5A"/>
<rect y="63" width="8" height="5" fill="#6D5D5A"/>
<rect x="24" y="64" width="8" height="5" fill="#6D5D5A"/>
<rect x="58" y="72" width="5" height="5" fill="#3B211D"/>
<rect x="32" y="102" width="8" height="5" fill="#3B211D"/>
<rect x="48" y="113" width="8" height="5" fill="#3B211D"/>
<rect x="5" y="113" width="5" height="5" fill="#3B211D"/>
<rect x="69" y="113" width="8" height="5" fill="#3B211D"/>
<rect x="60" y="99" width="9" height="5" fill="#3B211D"/>
<rect x="47" y="81" width="5" height="5" fill="#3B211D"/>
<rect x="72" y="73" width="5" height="5" fill="#502F2A"/>
</svg>
