<svg width="131" height="92" viewBox="0 0 131 92" fill="none" xmlns="http://www.w3.org/2000/svg">
<path d="M48.0254 6.47306C50.473 5.28158 50.6681 5.07282 53.6453 5.07282C53.6453 3.73369 56.1731 4.38346 58.1258 3.87648C62.5995 2.71501 66.7851 2.25684 71.769 2.25684C74.2062 2.25684 75.4763 2.65952 77.5564 3.41373C81.6984 4.91551 86.1312 6.53709 89.8133 8.40121C94.2067 10.6255 98.0721 13.2238 97.3391 16.8208C96.6884 20.0136 95.5713 23.5553 92.96 26.423C90.5957 29.0195 86.4673 31.7143 81.6934 32.7988C76.7959 33.9113 70.2485 33.2379 65.1455 32.9787C56.5267 32.5409 47.4524 30.4351 40.8957 27.1943C38.0558 25.7906 34.6896 23.65 34.2502 21.4098C33.7089 18.6506 34.2733 16.1263 36.7147 13.7229C39.7247 10.76 43.5538 8.64981 48.0254 6.47306Z" fill="#073018" stroke="#094C25" stroke-width="3" stroke-linecap="round"/>
<rect x="48.834" y="3.03003" width="3.03193" height="2.03007" fill="#094C25"/>
<rect x="51.8662" y="3.03003" width="3.03193" height="2.03007" fill="#094C25"/>
<rect x="45.8027" y="5.0603" width="3.03193" height="2.03007" fill="#094C25"/>
<rect x="42.7705" y="7.09033" width="3.03193" height="2.03007" fill="#094C25"/>
<rect x="39.7383" y="9.12036" width="3.03193" height="2.03007" fill="#094C25"/>
<rect x="36.7061" y="11.1504" width="3.03193" height="2.03007" fill="#094C25"/>
<rect x="33.6748" y="13.1804" width="3.03193" height="2.03007" fill="#094C25"/>
<rect x="33.6748" y="15.2104" width="3.03193" height="2.03007" fill="#094C25"/>
<rect x="33.6748" y="17.2407" width="3.03193" height="2.03007" fill="#094C25"/>
<rect x="33.6748" y="19.2708" width="3.03193" height="2.03007" fill="#094C25"/>
<rect x="33.6748" y="21.3008" width="3.03193" height="2.03007" fill="#094C25"/>
<rect x="36.7061" y="23.3311" width="3.03193" height="2.03007" fill="#094C25"/>
<rect x="39.7383" y="25.3611" width="3.03193" height="2.03007" fill="#094C25"/>
<rect x="42.7705" y="27.3911" width="3.03193" height="2.03007" fill="#094C25"/>
<rect x="51.8662" y="29.4211" width="3.03193" height="2.03007" fill="#094C25"/>
<rect x="45.8027" y="27.3911" width="3.03193" height="2.03007" fill="#094C25"/>
<rect x="48.834" y="29.4211" width="3.03193" height="2.03007" fill="#094C25"/>
<rect x="54.8984" y="29.4211" width="3.03193" height="2.03007" fill="#094C25"/>
<rect x="57.9297" y="31.4512" width="3.03193" height="2.03007" fill="#094C25"/>
<rect x="60.9619" y="31.4512" width="3.03193" height="2.03007" fill="#094C25"/>
<rect x="63.9941" y="31.4512" width="3.03193" height="2.03007" fill="#094C25"/>
<rect x="79.1533" y="31.4512" width="3.03193" height="2.03007" fill="#094C25"/>
<rect x="67.0254" y="31.4512" width="3.03193" height="2.03007" fill="#094C25"/>
<rect x="70.0576" y="31.4512" width="3.03193" height="2.03007" fill="#094C25"/>
<rect x="73.0898" y="31.4512" width="3.03193" height="2.03007" fill="#094C25"/>
<rect x="76.1221" y="31.4512" width="3.03193" height="2.03007" fill="#094C25"/>
<rect x="91.2812" y="25.3611" width="3.03193" height="2.03007" fill="#094C25"/>
<rect x="88.249" y="27.3911" width="3.03193" height="2.03007" fill="#094C25"/>
<rect x="85.2178" y="29.4211" width="3.03193" height="2.03007" fill="#094C25"/>
<rect x="82.1855" y="31.4512" width="3.03193" height="2.03007" fill="#094C25"/>
<rect x="97.3447" y="15.2104" width="3.03193" height="2.03007" fill="#094C25"/>
<rect x="94.3135" y="17.2407" width="3.03193" height="2.03007" fill="#094C25"/>
<rect x="94.3135" y="19.2708" width="3.03193" height="2.03007" fill="#094C25"/>
<rect x="94.3135" y="21.3008" width="3.03193" height="2.03007" fill="#094C25"/>
<rect x="94.3135" y="23.3311" width="3.03193" height="2.03007" fill="#094C25"/>
<rect x="88.249" y="7.09033" width="3.03193" height="2.03007" fill="#094C25"/>
<rect x="91.2812" y="9.12036" width="3.03193" height="2.03007" fill="#094C25"/>
<rect x="94.3135" y="11.1504" width="3.03193" height="2.03007" fill="#094C25"/>
<rect x="79.1533" y="3.03003" width="3.03193" height="2.03007" fill="#094C25"/>
<rect x="85.2178" y="5.0603" width="3.03193" height="2.03007" fill="#094C25"/>
<rect x="82.1855" y="3.03003" width="3.03193" height="2.03007" fill="#094C25"/>
<rect x="76.1211" y="1" width="3.03193" height="2.03007" fill="#094C25"/>
<rect x="73.0898" y="1" width="3.03193" height="2.03007" fill="#094C25"/>
<rect x="70.0576" y="1" width="3.03193" height="2.03007" fill="#094C25"/>
<rect x="63.9941" y="1" width="3.03193" height="2.03007" fill="#094C25"/>
<rect x="57.9297" y="1" width="3.03193" height="2.03007" fill="#094C25"/>
<rect x="60.9619" y="1" width="3.03193" height="2.03007" fill="#094C25"/>
<rect x="67.0254" y="1" width="3.03193" height="2.03007" fill="#094C25"/>
<rect x="57.9297" y="3.03003" width="3.03193" height="2.03007" fill="#094C25"/>
<rect x="54.8984" y="3.03003" width="3.03193" height="2.03007" fill="#094C25"/>
<path d="M62.6214 26.4264C59.6336 27.207 56.409 28.0235 53.1543 28.0235C51.9599 29.6229 50.1118 29.039 48.0873 28.3806C46.5783 27.8898 45.695 26.8522 44.3538 26.3768C41.8342 25.4836 41.2611 24.6042 39.2077 23.2293C37.1039 21.8207 36.8763 19.3996 36.8276 17.4436C36.747 14.2076 38.7087 13.2487 42.3154 10.7033C44.4069 9.22718 44.2626 7.19571 47.0149 6.735C53.2093 5.6981 55.3706 4.84817 61.7197 4.00729C64.2724 3.66921 68.5374 1.0269 70.8884 1.87453C73.3605 2.7658 76.1069 3.33307 78.7406 4.00732C80.7149 4.51274 82.9305 5.17259 84.7557 5.88219C86.2218 6.45218 87.6909 6.87586 88.2225 8.01497C88.7648 9.17691 87.9944 10.2156 86.3558 10.7033C85.6098 10.9253 85.69 12.5056 85.5557 12.9551C84.9367 15.0275 84.4312 16.8719 82.7852 18.7087C82.2027 19.3587 82.0081 19.5177 81.0074 19.2741C79.5516 18.9196 78.0324 18.917 76.5035 18.917C73.3516 18.917 73.8777 19.9654 73.0218 21.6846C71.6058 24.5291 66.435 25.4299 62.6214 26.4264Z" fill="#41893F"/>
<rect x="51.8672" y="27.3911" width="3.03193" height="2.03007" fill="#41893F"/>
<rect x="54.8984" y="27.3911" width="3.03193" height="2.03007" fill="#41893F"/>
<rect x="57.9307" y="25.3611" width="3.03193" height="2.03007" fill="#41893F"/>
<rect x="60.9629" y="25.3611" width="3.03193" height="2.03007" fill="#41893F"/>
<rect x="70.0586" y="21.3008" width="3.03193" height="2.03007" fill="#41893F"/>
<rect x="67.0264" y="23.3308" width="3.03193" height="2.03007" fill="#41893F"/>
<rect x="63.9941" y="25.3611" width="3.03193" height="2.03007" fill="#41893F"/>
<rect x="73.0898" y="19.2708" width="3.03193" height="2.03007" fill="#41893F"/>
<rect x="73.0898" y="17.2405" width="3.03193" height="2.03007" fill="#41893F"/>
<rect x="76.1221" y="17.2405" width="3.03193" height="2.03007" fill="#41893F"/>
<rect x="79.1543" y="17.2405" width="3.03193" height="2.03007" fill="#41893F"/>
<rect x="79.1543" y="19.2708" width="3.03193" height="2.03007" fill="#41893F"/>
<rect x="82.1855" y="17.2405" width="3.03193" height="2.03007" fill="#41893F"/>
<rect x="82.1855" y="13.1804" width="3.03193" height="2.03007" fill="#41893F"/>
<rect x="82.1855" y="15.2104" width="3.03193" height="2.03007" fill="#41893F"/>
<rect x="85.2178" y="11.1504" width="3.03193" height="2.03007" fill="#41893F"/>
<rect x="85.2178" y="9.12036" width="3.03193" height="2.03007" fill="#41893F"/>
<rect x="88.25" y="7.09033" width="3.03193" height="2.03007" fill="#41893F"/>
<rect x="85.2178" y="7.09033" width="3.03193" height="2.03007" fill="#41893F"/>
<rect x="85.2178" y="5.06006" width="3.03193" height="2.03007" fill="#41893F"/>
<rect x="82.1855" y="5.06006" width="3.03193" height="2.03007" fill="#41893F"/>
<rect x="76.1221" y="3.03003" width="3.03193" height="2.03007" fill="#41893F"/>
<rect x="79.1543" y="3.03003" width="3.03193" height="2.03007" fill="#41893F"/>
<rect x="70.0586" y="1" width="3.03193" height="2.03007" fill="#41893F"/>
<rect x="73.0898" y="1" width="3.03193" height="2.03007" fill="#41893F"/>
<rect x="67.0264" y="1" width="3.03193" height="2.03007" fill="#41893F"/>
<rect x="60.9629" y="3.03003" width="3.03193" height="2.03007" fill="#41893F"/>
<rect x="63.9941" y="1" width="3.03193" height="2.03007" fill="#41893F"/>
<rect x="48.835" y="5.06006" width="3.03193" height="2.03007" fill="#41893F"/>
<rect x="45.8027" y="5.06006" width="3.03193" height="2.03007" fill="#41893F"/>
<rect x="51.8662" y="5.06006" width="3.03193" height="2.03007" fill="#41893F"/>
<rect x="54.8984" y="3.03003" width="3.03193" height="2.03007" fill="#41893F"/>
<rect x="57.9307" y="3.03003" width="3.03193" height="2.03007" fill="#41893F"/>
<rect x="42.7705" y="7.09033" width="3.03193" height="2.03007" fill="#41893F"/>
<rect x="42.7705" y="9.12036" width="3.03193" height="2.03007" fill="#41893F"/>
<rect x="39.7393" y="9.12036" width="3.03193" height="2.03007" fill="#41893F"/>
<rect x="39.7393" y="11.1504" width="3.03193" height="2.03007" fill="#41893F"/>
<rect x="36.707" y="13.1804" width="3.03193" height="2.03007" fill="#41893F"/>
<rect x="36.707" y="15.2104" width="3.03193" height="2.03007" fill="#41893F"/>
<rect x="36.707" y="17.2405" width="3.03193" height="2.03007" fill="#41893F"/>
<rect x="36.707" y="19.2708" width="3.03193" height="2.03007" fill="#41893F"/>
<rect x="36.707" y="21.3008" width="3.03193" height="2.03007" fill="#41893F"/>
<rect x="39.7393" y="23.3308" width="3.03193" height="2.03007" fill="#41893F"/>
<rect x="42.7705" y="25.3611" width="3.03193" height="2.03007" fill="#41893F"/>
<rect x="45.8027" y="27.3911" width="3.03193" height="2.03007" fill="#41893F"/>
<rect x="48.835" y="27.3911" width="3.03193" height="2.03007" fill="#41893F"/>
<path d="M50.3975 7.81395C51.1296 7.32543 50.4139 7.01286 51.2993 6.7223C51.5875 6.24932 53.394 6.08151 53.9603 5.89143C55.032 5.53169 55.9822 4.86178 57.0204 4.43589C58.1904 3.95589 59.494 3.7569 60.7458 3.47159C62.553 3.05969 66.7601 2.49436 67.9895 4.10839C68.5571 4.85348 68.6446 5.64642 69.4531 6.28563C70.0147 6.72966 71.4398 7.00054 71.1901 7.82001C70.6291 9.6611 69.1491 11.2588 67.8417 12.7931C65.3232 15.7489 62.2472 18.9642 58.4248 20.841C54.5759 22.7309 48.339 23.5943 44.3068 21.5688C42.4371 20.6296 42.2741 18.9306 41.7289 17.2405C41.4097 16.2512 41.6562 13.6094 42.6511 12.7931C43.159 12.3764 42.0997 12.691 42.6511 12.314C43.8678 11.4821 45.3281 10.967 46.5982 10.1974C47.8845 9.41806 49.1568 8.64191 50.3975 7.81395Z" fill="#A1CB3C" stroke="#A1CB3C" stroke-width="3" stroke-linecap="round"/>
<rect x="50.8213" y="5.06006" width="2.47422" height="2.03007" fill="#A1CB3C"/>
<rect x="50.8213" y="7.09009" width="2.47422" height="2.03007" fill="#A1CB3C"/>
<rect x="48.3477" y="7.09009" width="2.47422" height="2.03007" fill="#A1CB3C"/>
<rect x="45.873" y="9.12036" width="2.47422" height="2.03007" fill="#A1CB3C"/>
<rect x="43.3994" y="11.1504" width="2.47422" height="2.03007" fill="#A1CB3C"/>
<rect x="40.9248" y="11.1504" width="2.47422" height="2.03007" fill="#A1CB3C"/>
<rect x="40.9248" y="13.1804" width="2.47422" height="2.03007" fill="#A1CB3C"/>
<rect x="40.9248" y="15.2104" width="2.47422" height="2.03007" fill="#A1CB3C"/>
<rect x="40.9248" y="17.2405" width="2.47422" height="2.03007" fill="#A1CB3C"/>
<rect x="40.9248" y="19.2708" width="2.47422" height="2.03007" fill="#A1CB3C"/>
<rect x="43.3994" y="21.3008" width="2.47422" height="2.03007" fill="#A1CB3C"/>
<rect x="45.873" y="21.3008" width="2.47422" height="2.03007" fill="#A1CB3C"/>
<rect x="53.2959" y="21.3008" width="2.47422" height="2.03007" fill="#A1CB3C"/>
<rect x="48.3477" y="21.3008" width="2.47422" height="2.03007" fill="#A1CB3C"/>
<rect x="50.8213" y="21.3008" width="2.47422" height="2.03007" fill="#A1CB3C"/>
<rect x="55.7705" y="21.3008" width="2.47422" height="2.03007" fill="#A1CB3C"/>
<rect x="58.2441" y="19.2708" width="2.47422" height="2.03007" fill="#A1CB3C"/>
<rect x="65.667" y="13.1804" width="2.47422" height="2.03007" fill="#A1CB3C"/>
<rect x="63.1924" y="15.2104" width="2.47422" height="2.03007" fill="#A1CB3C"/>
<rect x="60.7188" y="17.2405" width="2.47422" height="2.03007" fill="#A1CB3C"/>
<rect x="68.1416" y="11.1504" width="2.47422" height="2.03007" fill="#A1CB3C"/>
<rect x="70.6152" y="7.09009" width="2.47422" height="2.03007" fill="#A1CB3C"/>
<rect x="68.1416" y="9.12036" width="2.47422" height="2.03007" fill="#A1CB3C"/>
<rect x="68.1416" y="5.06006" width="2.47422" height="2.03007" fill="#A1CB3C"/>
<rect x="68.1416" y="3.03003" width="2.47422" height="2.03007" fill="#A1CB3C"/>
<rect x="60.7188" y="3.03003" width="2.47422" height="2.03007" fill="#A1CB3C"/>
<rect x="63.1924" y="1" width="2.47422" height="2.03007" fill="#A1CB3C"/>
<rect x="65.667" y="3.03003" width="2.47422" height="2.03007" fill="#A1CB3C"/>
<rect x="55.7705" y="3.03003" width="2.47422" height="2.03007" fill="#A1CB3C"/>
<rect x="58.2441" y="3.03003" width="2.47422" height="2.03007" fill="#A1CB3C"/>
<rect x="53.2959" y="5.06006" width="2.47422" height="2.03007" fill="#A1CB3C"/>
<path d="M81.0866 12.7014C81.1918 11.5387 82.6912 10.3077 84.505 10.1973C85.7359 10.1973 86.2276 10.5267 87.2921 10.8831C88.2552 11.2055 90.508 11.3971 90.508 12.2787C90.508 14.6919 84.1587 14.9389 81.8608 14.5676C80.6571 14.373 81.0263 13.3677 81.0866 12.7014Z" fill="#A1CB3C" stroke="#A1CB3C" stroke-width="3" stroke-linecap="round"/>
<rect x="79.1533" y="11.1504" width="3.03193" height="2.03007" fill="#A1CB3C"/>
<rect x="82.1855" y="9.12036" width="3.03193" height="2.03007" fill="#A1CB3C"/>
<rect x="79.1533" y="13.1804" width="3.03193" height="2.03007" fill="#A1CB3C"/>
<rect x="88.249" y="13.1804" width="3.03193" height="2.03007" fill="#A1CB3C"/>
<rect x="82.1855" y="13.1804" width="3.03193" height="2.03007" fill="#A1CB3C"/>
<rect x="85.2178" y="13.1804" width="3.03193" height="2.03007" fill="#A1CB3C"/>
<rect x="88.249" y="11.1504" width="3.03193" height="2.03007" fill="#A1CB3C"/>
<rect x="85.2178" y="9.12036" width="3.03193" height="2.03007" fill="#A1CB3C"/>
<path d="M81.0866 12.7014C81.1918 11.5387 82.6912 10.3077 84.505 10.1973C85.7359 10.1973 86.2276 10.5267 87.2921 10.8831C88.2552 11.2055 90.508 11.3971 90.508 12.2787C90.508 14.6919 84.1587 14.9389 81.8608 14.5676C80.6571 14.373 81.0263 13.3677 81.0866 12.7014Z" fill="#A1CB3C" stroke="#A1CB3C" stroke-width="3" stroke-linecap="round"/>
<rect x="79.1533" y="11.1504" width="3.03193" height="2.03007" fill="#A1CB3C"/>
<rect x="82.1855" y="9.12036" width="3.03193" height="2.03007" fill="#A1CB3C"/>
<rect x="79.1533" y="13.1804" width="3.03193" height="2.03007" fill="#A1CB3C"/>
<rect x="88.249" y="13.1804" width="3.03193" height="2.03007" fill="#A1CB3C"/>
<rect x="82.1855" y="13.1804" width="3.03193" height="2.03007" fill="#A1CB3C"/>
<rect x="85.2178" y="13.1804" width="3.03193" height="2.03007" fill="#A1CB3C"/>
<rect x="88.249" y="11.1504" width="3.03193" height="2.03007" fill="#A1CB3C"/>
<rect x="85.2178" y="9.12036" width="3.03193" height="2.03007" fill="#A1CB3C"/>
<path d="M15.9074 12.6727C17.4682 11.5379 17.5926 11.3391 19.4911 11.3391C19.4911 10.0638 21.103 10.6826 22.3483 10.1997C25.2011 9.09359 27.8701 8.65723 31.0483 8.65723C32.6024 8.65723 33.4123 9.04074 34.7388 9.75903C37.38 11.1893 40.2068 12.7337 42.5548 14.509C45.3564 16.6273 47.8213 19.1019 47.3538 22.5277C46.9389 25.5684 46.2266 28.9415 44.5614 31.6726C43.0537 34.1455 40.4211 36.7119 37.3769 37.7448C34.2538 38.8044 30.0787 38.163 26.8246 37.9162C21.3286 37.4992 15.5421 35.4937 11.361 32.4072C9.55003 31.0703 7.40343 29.0316 7.12322 26.8982C6.77809 24.2703 7.13797 21.8662 8.69484 19.5773C10.6142 16.7554 13.056 14.7458 15.9074 12.6727Z" fill="#073018" stroke="#094C25" stroke-width="3" stroke-linecap="round"/>
<rect x="16.2832" y="10.0105" width="1.93341" height="1.9334" fill="#094C25"/>
<rect x="18.2168" y="10.0105" width="1.93341" height="1.9334" fill="#094C25"/>
<rect x="14.3496" y="11.9441" width="1.93341" height="1.9334" fill="#094C25"/>
<rect x="12.416" y="13.8774" width="1.93341" height="1.9334" fill="#094C25"/>
<rect x="10.4824" y="15.8108" width="1.93341" height="1.9334" fill="#094C25"/>
<rect x="8.5498" y="17.7441" width="1.93341" height="1.9334" fill="#094C25"/>
<rect x="6.61621" y="19.6775" width="1.93341" height="1.9334" fill="#094C25"/>
<rect x="6.61621" y="21.6111" width="1.93341" height="1.9334" fill="#094C25"/>
<rect x="6.61621" y="23.5444" width="1.93341" height="1.9334" fill="#094C25"/>
<rect x="6.61621" y="25.4778" width="1.93341" height="1.9334" fill="#094C25"/>
<rect x="6.61621" y="27.4111" width="1.93341" height="1.9334" fill="#094C25"/>
<rect x="8.5498" y="29.3447" width="1.93341" height="1.9334" fill="#094C25"/>
<rect x="10.4824" y="31.2781" width="1.93341" height="1.9334" fill="#094C25"/>
<rect x="12.416" y="33.2114" width="1.93341" height="1.9334" fill="#094C25"/>
<rect x="18.2168" y="35.1448" width="1.93341" height="1.9334" fill="#094C25"/>
<rect x="14.3496" y="33.2114" width="1.93341" height="1.9334" fill="#094C25"/>
<rect x="16.2832" y="35.1448" width="1.93341" height="1.9334" fill="#094C25"/>
<rect x="20.1494" y="35.1448" width="1.93341" height="1.9334" fill="#094C25"/>
<rect x="22.083" y="37.0781" width="1.93341" height="1.9334" fill="#094C25"/>
<rect x="24.0166" y="37.0781" width="1.93341" height="1.9334" fill="#094C25"/>
<rect x="25.9502" y="37.0781" width="1.93341" height="1.9334" fill="#094C25"/>
<rect x="35.6172" y="37.0781" width="1.93341" height="1.9334" fill="#094C25"/>
<rect x="27.8838" y="37.0781" width="1.93341" height="1.9334" fill="#094C25"/>
<rect x="29.8164" y="37.0781" width="1.93341" height="1.9334" fill="#094C25"/>
<rect x="31.75" y="37.0781" width="1.93341" height="1.9334" fill="#094C25"/>
<rect x="33.6836" y="37.0781" width="1.93341" height="1.9334" fill="#094C25"/>
<rect x="43.3506" y="31.2781" width="1.93341" height="1.9334" fill="#094C25"/>
<rect x="41.417" y="33.2114" width="1.93341" height="1.9334" fill="#094C25"/>
<rect x="39.4844" y="35.1448" width="1.93341" height="1.9334" fill="#094C25"/>
<rect x="37.5508" y="37.0781" width="1.93341" height="1.9334" fill="#094C25"/>
<rect x="47.2178" y="21.6111" width="1.93341" height="1.9334" fill="#094C25"/>
<rect x="45.2842" y="23.5444" width="1.93341" height="1.9334" fill="#094C25"/>
<rect x="45.2842" y="25.4778" width="1.93341" height="1.9334" fill="#094C25"/>
<rect x="45.2842" y="27.4111" width="1.93341" height="1.9334" fill="#094C25"/>
<rect x="45.2842" y="29.3447" width="1.93341" height="1.9334" fill="#094C25"/>
<rect x="41.417" y="13.8774" width="1.93341" height="1.9334" fill="#094C25"/>
<rect x="43.3506" y="15.8108" width="1.93341" height="1.9334" fill="#094C25"/>
<rect x="45.2842" y="17.7441" width="1.93341" height="1.9334" fill="#094C25"/>
<rect x="47.2178" y="19.6775" width="1.93341" height="1.9334" fill="#094C25"/>
<rect x="35.6172" y="10.0105" width="1.93341" height="1.9334" fill="#094C25"/>
<rect x="39.4844" y="11.9441" width="1.93341" height="1.9334" fill="#094C25"/>
<rect x="37.5508" y="10.0105" width="1.93341" height="1.9334" fill="#094C25"/>
<rect x="33.6836" y="8.07715" width="1.93341" height="1.9334" fill="#094C25"/>
<rect x="31.75" y="8.07715" width="1.93341" height="1.9334" fill="#094C25"/>
<rect x="29.8164" y="8.07715" width="1.93341" height="1.9334" fill="#094C25"/>
<rect x="25.9502" y="8.07715" width="1.93341" height="1.9334" fill="#094C25"/>
<rect x="22.083" y="8.07715" width="1.93341" height="1.9334" fill="#094C25"/>
<rect x="24.0166" y="8.07715" width="1.93341" height="1.9334" fill="#094C25"/>
<rect x="27.8838" y="8.07715" width="1.93341" height="1.9334" fill="#094C25"/>
<rect x="22.083" y="10.0105" width="1.93341" height="1.9334" fill="#094C25"/>
<rect x="20.1494" y="10.0105" width="1.93341" height="1.9334" fill="#094C25"/>
<path d="M25.0747 32.2927C23.1695 33.0362 21.1133 33.8138 19.0377 33.8138C18.2761 35.337 17.0976 34.7809 15.8067 34.1539C14.8444 33.6865 14.2811 32.6983 13.4259 32.2455C11.8192 31.3949 11.4537 30.5574 10.1443 29.2479C8.80274 27.9064 8.65757 25.6005 8.62652 23.7377C8.57516 20.6559 9.82605 19.7426 12.126 17.3184C13.4597 15.9126 13.3677 13.9778 15.1228 13.5391C19.0729 12.5515 20.4511 11.7421 24.4998 10.9412C26.1276 10.6193 28.8472 8.10278 30.3465 8.91005C31.9229 9.75888 33.6742 10.2991 35.3537 10.9413C36.6126 11.4226 38.0255 12.0511 39.1894 12.7269C40.1243 13.2697 41.0611 13.6732 41.4001 14.7581C41.7459 15.8647 41.2546 16.854 40.2097 17.3184C39.734 17.5298 39.7852 19.0349 39.6996 19.463C39.3048 21.4367 38.9824 23.1933 37.9329 24.9426C37.5614 25.5617 37.4373 25.7131 36.7992 25.4811C35.8708 25.1435 34.902 25.1409 33.9271 25.1409C31.9172 25.1409 32.2527 26.1395 31.7069 27.7768C30.8039 30.4858 27.5066 31.3437 25.0747 32.2927Z" fill="#41893F"/>
<rect x="18.2158" y="33.2114" width="1.93341" height="1.9334" fill="#41893F"/>
<rect x="20.1494" y="33.2114" width="1.93341" height="1.9334" fill="#41893F"/>
<rect x="22.083" y="31.2781" width="1.93341" height="1.9334" fill="#41893F"/>
<rect x="24.0166" y="31.2781" width="1.93341" height="1.9334" fill="#41893F"/>
<rect x="29.8164" y="27.4111" width="1.93341" height="1.9334" fill="#41893F"/>
<rect x="27.8828" y="29.3445" width="1.93341" height="1.9334" fill="#41893F"/>
<rect x="25.9492" y="31.2781" width="1.93341" height="1.9334" fill="#41893F"/>
<rect x="31.75" y="25.4778" width="1.93341" height="1.9334" fill="#41893F"/>
<rect x="31.75" y="23.5444" width="1.93341" height="1.9334" fill="#41893F"/>
<rect x="33.6826" y="23.5444" width="1.93341" height="1.9334" fill="#41893F"/>
<rect x="35.6162" y="23.5444" width="1.93341" height="1.9334" fill="#41893F"/>
<rect x="35.6162" y="25.4778" width="1.93341" height="1.9334" fill="#41893F"/>
<rect x="37.5498" y="23.5444" width="1.93341" height="1.9334" fill="#41893F"/>
<rect x="37.5498" y="19.6775" width="1.93341" height="1.9334" fill="#41893F"/>
<rect x="37.5498" y="21.6111" width="1.93341" height="1.9334" fill="#41893F"/>
<rect x="39.4834" y="17.7441" width="1.93341" height="1.9334" fill="#41893F"/>
<rect x="39.4834" y="15.8108" width="1.93341" height="1.9334" fill="#41893F"/>
<rect x="41.417" y="13.8774" width="1.93341" height="1.9334" fill="#41893F"/>
<rect x="39.4834" y="13.8774" width="1.93341" height="1.9334" fill="#41893F"/>
<rect x="39.4834" y="11.9438" width="1.93341" height="1.9334" fill="#41893F"/>
<rect x="37.5498" y="11.9438" width="1.93341" height="1.9334" fill="#41893F"/>
<rect x="33.6826" y="10.0105" width="1.93341" height="1.9334" fill="#41893F"/>
<rect x="35.6162" y="10.0105" width="1.93341" height="1.9334" fill="#41893F"/>
<rect x="29.8164" y="8.07715" width="1.93341" height="1.9334" fill="#41893F"/>
<rect x="31.75" y="8.07715" width="1.93341" height="1.9334" fill="#41893F"/>
<rect x="27.8828" y="8.07715" width="1.93341" height="1.9334" fill="#41893F"/>
<rect x="24.0166" y="10.0105" width="1.93341" height="1.9334" fill="#41893F"/>
<rect x="25.9492" y="8.07715" width="1.93341" height="1.9334" fill="#41893F"/>
<rect x="16.2822" y="11.9438" width="1.93341" height="1.9334" fill="#41893F"/>
<rect x="14.3486" y="11.9438" width="1.93341" height="1.9334" fill="#41893F"/>
<rect x="18.2158" y="11.9438" width="1.93341" height="1.9334" fill="#41893F"/>
<rect x="20.1494" y="10.0105" width="1.93341" height="1.9334" fill="#41893F"/>
<rect x="22.083" y="10.0105" width="1.93341" height="1.9334" fill="#41893F"/>
<rect x="12.416" y="13.8774" width="1.93341" height="1.9334" fill="#41893F"/>
<rect x="12.416" y="15.8108" width="1.93341" height="1.9334" fill="#41893F"/>
<rect x="10.4824" y="15.8108" width="1.93341" height="1.9334" fill="#41893F"/>
<rect x="10.4824" y="17.7441" width="1.93341" height="1.9334" fill="#41893F"/>
<rect x="8.54883" y="19.6775" width="1.93341" height="1.9334" fill="#41893F"/>
<rect x="8.54883" y="21.6111" width="1.93341" height="1.9334" fill="#41893F"/>
<rect x="8.54883" y="23.5444" width="1.93341" height="1.9334" fill="#41893F"/>
<rect x="8.54883" y="25.4778" width="1.93341" height="1.9334" fill="#41893F"/>
<rect x="8.54883" y="27.4111" width="1.93341" height="1.9334" fill="#41893F"/>
<rect x="10.4824" y="29.3445" width="1.93341" height="1.9334" fill="#41893F"/>
<rect x="12.416" y="31.2781" width="1.93341" height="1.9334" fill="#41893F"/>
<rect x="14.3486" y="33.2114" width="1.93341" height="1.9334" fill="#41893F"/>
<rect x="16.2822" y="33.2114" width="1.93341" height="1.9334" fill="#41893F"/>
<path d="M14.018 14.5666C14.59 14.1014 14.0308 13.8037 14.7227 13.5269C14.9479 13.0765 16.3595 12.9167 16.802 12.7356C17.6395 12.393 18.382 11.755 19.1932 11.3494C20.1075 10.8923 21.1261 10.7028 22.1043 10.431C23.5166 10.0387 26.804 9.50034 27.7648 11.0375C28.2083 11.7471 28.2767 12.5023 28.9084 13.1111C29.3472 13.534 30.4609 13.7919 30.2658 14.5724C29.8274 16.3258 28.6708 17.8474 27.6492 19.3087C25.6812 22.1237 23.2776 25.1859 20.2907 26.9734C17.283 28.7732 12.4094 29.5955 9.2586 27.6665C7.79759 26.772 7.67022 25.1539 7.24414 23.5443C6.99474 22.6021 7.18733 20.0861 7.96478 19.3087C8.36164 18.9118 7.53391 19.2114 7.96479 18.8524C8.91556 18.0601 10.0566 17.5695 11.0491 16.8366C12.0542 16.0943 13.0485 15.3551 14.018 14.5666Z" fill="#A1CB3C" stroke="#A1CB3C" stroke-width="3" stroke-linecap="round"/>
<rect x="14.3496" y="11.9441" width="1.93341" height="1.9334" fill="#A1CB3C"/>
<rect x="14.3496" y="13.8774" width="1.93341" height="1.9334" fill="#A1CB3C"/>
<rect x="12.416" y="13.8774" width="1.93341" height="1.9334" fill="#A1CB3C"/>
<rect x="10.4824" y="15.8108" width="1.93341" height="1.9334" fill="#A1CB3C"/>
<rect x="8.5498" y="17.7441" width="1.93341" height="1.9334" fill="#A1CB3C"/>
<rect x="6.61621" y="17.7441" width="1.93341" height="1.9334" fill="#A1CB3C"/>
<rect x="6.61621" y="19.6775" width="1.93341" height="1.9334" fill="#A1CB3C"/>
<rect x="6.61621" y="21.6111" width="1.93341" height="1.9334" fill="#A1CB3C"/>
<rect x="6.61621" y="23.5444" width="1.93341" height="1.9334" fill="#A1CB3C"/>
<rect x="6.61621" y="25.4778" width="1.93341" height="1.9334" fill="#A1CB3C"/>
<rect x="8.5498" y="27.4111" width="1.93341" height="1.9334" fill="#A1CB3C"/>
<rect x="10.4824" y="27.4111" width="1.93341" height="1.9334" fill="#A1CB3C"/>
<rect x="16.2832" y="27.4111" width="1.93341" height="1.9334" fill="#A1CB3C"/>
<rect x="12.416" y="27.4111" width="1.93341" height="1.9334" fill="#A1CB3C"/>
<rect x="14.3496" y="27.4111" width="1.93341" height="1.9334" fill="#A1CB3C"/>
<rect x="18.2168" y="27.4111" width="1.93341" height="1.9334" fill="#A1CB3C"/>
<rect x="20.1494" y="25.4778" width="1.93341" height="1.9334" fill="#A1CB3C"/>
<rect x="25.9502" y="19.6775" width="1.93341" height="1.9334" fill="#A1CB3C"/>
<rect x="24.0166" y="21.6111" width="1.93341" height="1.9334" fill="#A1CB3C"/>
<rect x="22.083" y="23.5444" width="1.93341" height="1.9334" fill="#A1CB3C"/>
<rect x="27.8838" y="17.7441" width="1.93341" height="1.9334" fill="#A1CB3C"/>
<rect x="29.8164" y="13.8774" width="1.93341" height="1.9334" fill="#A1CB3C"/>
<rect x="27.8838" y="15.8108" width="1.93341" height="1.9334" fill="#A1CB3C"/>
<rect x="27.8838" y="11.9441" width="1.93341" height="1.9334" fill="#A1CB3C"/>
<rect x="27.8838" y="10.0105" width="1.93341" height="1.9334" fill="#A1CB3C"/>
<rect x="22.083" y="10.0105" width="1.93341" height="1.9334" fill="#A1CB3C"/>
<rect x="24.0166" y="8.07715" width="1.93341" height="1.9334" fill="#A1CB3C"/>
<rect x="25.9502" y="10.0105" width="1.93341" height="1.9334" fill="#A1CB3C"/>
<rect x="18.2168" y="10.0105" width="1.93341" height="1.9334" fill="#A1CB3C"/>
<rect x="20.1494" y="10.0105" width="1.93341" height="1.9334" fill="#A1CB3C"/>
<rect x="16.2832" y="11.9441" width="1.93341" height="1.9334" fill="#A1CB3C"/>
<path d="M36.8501 19.2213C36.9172 18.114 37.8733 16.9416 39.0299 16.8364C39.8148 16.8364 40.1284 17.1502 40.8072 17.4896C41.4213 17.7967 42.8579 17.9791 42.8579 18.8188C42.8579 21.1171 38.8091 21.3523 37.3438 20.9986C36.5762 20.8133 36.8116 19.8559 36.8501 19.2213Z" fill="#A1CB3C" stroke="#A1CB3C" stroke-width="3" stroke-linecap="round"/>
<rect x="35.6172" y="17.7441" width="1.93341" height="1.9334" fill="#A1CB3C"/>
<rect x="37.5508" y="15.8108" width="1.93341" height="1.9334" fill="#A1CB3C"/>
<rect x="35.6172" y="19.6775" width="1.93341" height="1.9334" fill="#A1CB3C"/>
<rect x="41.417" y="19.6775" width="1.93341" height="1.9334" fill="#A1CB3C"/>
<rect x="37.5508" y="19.6775" width="1.93341" height="1.9334" fill="#A1CB3C"/>
<rect x="39.4844" y="19.6775" width="1.93341" height="1.9334" fill="#A1CB3C"/>
<rect x="41.417" y="17.7441" width="1.93341" height="1.9334" fill="#A1CB3C"/>
<rect x="39.4844" y="15.8108" width="1.93341" height="1.9334" fill="#A1CB3C"/>
<path d="M62.0107 30.967C65.2281 28.6279 65.4845 28.2181 69.398 28.2181C69.398 25.5891 72.7207 26.8647 75.2876 25.8694C81.1682 23.5892 86.6701 22.6897 93.2215 22.6897C96.4251 22.6897 98.0947 23.4803 100.829 24.9609C106.274 27.9092 112.1 31.0927 116.941 34.7524C122.716 39.119 127.797 44.22 126.833 51.2817C125.978 57.5498 124.509 64.5029 121.077 70.1328C117.969 75.2303 112.542 80.5206 106.267 82.6497C99.8293 84.8339 91.2228 83.5119 84.5149 83.003C73.1856 82.1435 61.2575 78.0094 52.6388 71.6469C48.9058 68.8912 44.4809 64.6888 43.9032 60.2909C43.1918 54.874 43.9336 49.9183 47.1429 45.1999C51.0994 39.3831 56.1328 35.2404 62.0107 30.967Z" fill="#073018" stroke="#094C25" stroke-width="3" stroke-linecap="round"/>
<rect x="62.7852" y="25.4795" width="3.98545" height="3.98545" fill="#094C25"/>
<rect x="66.7705" y="25.4795" width="3.98545" height="3.98545" fill="#094C25"/>
<rect x="58.7998" y="29.4651" width="3.98545" height="3.98545" fill="#094C25"/>
<rect x="54.8145" y="33.4504" width="3.98545" height="3.98545" fill="#094C25"/>
<rect x="50.8291" y="37.436" width="3.98545" height="3.98545" fill="#094C25"/>
<rect x="46.8438" y="41.4214" width="3.98545" height="3.98545" fill="#094C25"/>
<rect x="42.8584" y="45.407" width="3.98545" height="3.98545" fill="#094C25"/>
<rect x="42.8584" y="49.3923" width="3.98545" height="3.98545" fill="#094C25"/>
<rect x="42.8584" y="53.3777" width="3.98545" height="3.98545" fill="#094C25"/>
<rect x="42.8584" y="57.3633" width="3.98545" height="3.98545" fill="#094C25"/>
<rect x="42.8584" y="61.3486" width="3.98545" height="3.98545" fill="#094C25"/>
<rect x="46.8438" y="65.334" width="3.98545" height="3.98545" fill="#094C25"/>
<rect x="50.8291" y="69.3196" width="3.98545" height="3.98545" fill="#094C25"/>
<rect x="54.8145" y="73.3049" width="3.98545" height="3.98545" fill="#094C25"/>
<rect x="66.7705" y="77.2905" width="3.98545" height="3.98545" fill="#094C25"/>
<rect x="58.7998" y="73.3049" width="3.98545" height="3.98545" fill="#094C25"/>
<rect x="62.7852" y="77.2905" width="3.98545" height="3.98545" fill="#094C25"/>
<rect x="70.7559" y="77.2905" width="3.98545" height="3.98545" fill="#094C25"/>
<rect x="74.7412" y="81.2759" width="3.98545" height="3.98545" fill="#094C25"/>
<rect x="78.7275" y="81.2759" width="3.98545" height="3.98545" fill="#094C25"/>
<rect x="82.7129" y="81.2759" width="3.98545" height="3.98545" fill="#094C25"/>
<rect x="102.64" y="81.2759" width="3.98545" height="3.98545" fill="#094C25"/>
<rect x="86.6982" y="81.2759" width="3.98545" height="3.98545" fill="#094C25"/>
<rect x="90.6836" y="81.2759" width="3.98545" height="3.98545" fill="#094C25"/>
<rect x="94.6689" y="81.2759" width="3.98545" height="3.98545" fill="#094C25"/>
<rect x="98.6543" y="81.2759" width="3.98545" height="3.98545" fill="#094C25"/>
<rect x="118.582" y="69.3196" width="3.98545" height="3.98545" fill="#094C25"/>
<rect x="114.597" y="73.3049" width="3.98545" height="3.98545" fill="#094C25"/>
<rect x="110.61" y="77.2905" width="3.98545" height="3.98545" fill="#094C25"/>
<rect x="106.625" y="81.2759" width="3.98545" height="3.98545" fill="#094C25"/>
<rect x="126.553" y="49.3923" width="3.98545" height="3.98545" fill="#094C25"/>
<rect x="122.567" y="53.3777" width="3.98545" height="3.98545" fill="#094C25"/>
<rect x="122.567" y="57.3633" width="3.98545" height="3.98545" fill="#094C25"/>
<rect x="122.567" y="61.3486" width="3.98545" height="3.98545" fill="#094C25"/>
<rect x="122.567" y="65.334" width="3.98545" height="3.98545" fill="#094C25"/>
<rect x="114.597" y="33.4504" width="3.98545" height="3.98545" fill="#094C25"/>
<rect x="118.582" y="37.436" width="3.98545" height="3.98545" fill="#094C25"/>
<rect x="122.567" y="41.4214" width="3.98545" height="3.98545" fill="#094C25"/>
<rect x="126.553" y="45.407" width="3.98545" height="3.98545" fill="#094C25"/>
<rect x="102.64" y="25.4795" width="3.98545" height="3.98545" fill="#094C25"/>
<rect x="110.61" y="29.4651" width="3.98545" height="3.98545" fill="#094C25"/>
<rect x="106.625" y="25.4795" width="3.98545" height="3.98545" fill="#094C25"/>
<rect x="98.6543" y="21.4941" width="3.98545" height="3.98545" fill="#094C25"/>
<rect x="94.6689" y="21.4941" width="3.98545" height="3.98545" fill="#094C25"/>
<rect x="90.6836" y="21.4941" width="3.98545" height="3.98545" fill="#094C25"/>
<rect x="82.7129" y="21.4941" width="3.98545" height="3.98545" fill="#094C25"/>
<rect x="74.7412" y="21.4941" width="3.98545" height="3.98545" fill="#094C25"/>
<rect x="78.7275" y="21.4941" width="3.98545" height="3.98545" fill="#094C25"/>
<rect x="86.6982" y="21.4941" width="3.98545" height="3.98545" fill="#094C25"/>
<rect x="74.7412" y="25.4795" width="3.98545" height="3.98545" fill="#094C25"/>
<rect x="70.7559" y="25.4795" width="3.98545" height="3.98545" fill="#094C25"/>
<path d="M80.9089 71.4112C76.9815 72.9438 72.7428 74.5466 68.4644 74.5466C66.8945 77.6866 64.4651 76.5403 61.804 75.2477C59.8204 74.2843 58.6593 72.2471 56.8964 71.3138C53.5843 69.5604 52.831 67.834 50.1317 65.1347C47.3664 62.3694 47.0671 57.6161 47.0031 53.7762C46.8973 47.4233 49.4758 45.5408 54.2168 40.5436C56.9661 37.6457 56.7764 33.6575 60.3943 32.753C68.5368 30.7174 71.3778 29.0488 79.7237 27.398C83.0792 26.7343 88.6854 21.5469 91.7758 23.2109C95.0254 24.9607 98.6356 26.0743 102.098 27.398C104.693 28.3903 107.605 29.6857 110.004 31.0788C111.932 32.1978 113.863 33.0296 114.561 35.2659C115.274 37.547 114.262 39.5863 112.108 40.5436C111.127 40.9794 111.232 44.082 111.056 44.9644C110.242 49.0328 109.578 52.6539 107.414 56.2598C106.648 57.536 106.393 57.8482 105.077 57.3698C103.164 56.674 101.167 56.6687 99.1568 56.6687C95.0137 56.6687 95.7053 58.7271 94.5802 62.1022C92.7188 67.6864 85.9219 69.4549 80.9089 71.4112Z" fill="#41893F"/>
<rect x="66.7705" y="73.3049" width="3.98545" height="3.98545" fill="#41893F"/>
<rect x="70.7559" y="73.3049" width="3.98545" height="3.98545" fill="#41893F"/>
<rect x="74.7412" y="69.3196" width="3.98545" height="3.98545" fill="#41893F"/>
<rect x="78.7275" y="69.3196" width="3.98545" height="3.98545" fill="#41893F"/>
<rect x="90.6836" y="61.3486" width="3.98545" height="3.98545" fill="#41893F"/>
<rect x="86.6982" y="65.334" width="3.98545" height="3.98545" fill="#41893F"/>
<rect x="82.7129" y="69.3196" width="3.98545" height="3.98545" fill="#41893F"/>
<rect x="94.6689" y="57.3633" width="3.98545" height="3.98545" fill="#41893F"/>
<rect x="94.6689" y="53.3777" width="3.98545" height="3.98545" fill="#41893F"/>
<rect x="98.6543" y="53.3777" width="3.98545" height="3.98545" fill="#41893F"/>
<rect x="102.64" y="53.3777" width="3.98545" height="3.98545" fill="#41893F"/>
<rect x="102.64" y="57.3633" width="3.98545" height="3.98545" fill="#41893F"/>
<rect x="106.625" y="53.3777" width="3.98545" height="3.98545" fill="#41893F"/>
<rect x="106.625" y="45.4067" width="3.98545" height="3.98545" fill="#41893F"/>
<rect x="106.625" y="49.3923" width="3.98545" height="3.98545" fill="#41893F"/>
<rect x="110.61" y="41.4214" width="3.98545" height="3.98545" fill="#41893F"/>
<rect x="110.61" y="37.436" width="3.98545" height="3.98545" fill="#41893F"/>
<rect x="114.596" y="33.4504" width="3.98545" height="3.98545" fill="#41893F"/>
<rect x="110.61" y="33.4504" width="3.98545" height="3.98545" fill="#41893F"/>
<rect x="110.61" y="29.4651" width="3.98545" height="3.98545" fill="#41893F"/>
<rect x="106.625" y="29.4651" width="3.98545" height="3.98545" fill="#41893F"/>
<rect x="98.6543" y="25.4795" width="3.98545" height="3.98545" fill="#41893F"/>
<rect x="102.64" y="25.4795" width="3.98545" height="3.98545" fill="#41893F"/>
<rect x="90.6836" y="21.4941" width="3.98545" height="3.98545" fill="#41893F"/>
<rect x="94.6689" y="21.4941" width="3.98545" height="3.98545" fill="#41893F"/>
<rect x="86.6982" y="21.4941" width="3.98545" height="3.98545" fill="#41893F"/>
<rect x="78.7275" y="25.4795" width="3.98545" height="3.98545" fill="#41893F"/>
<rect x="82.7129" y="21.4941" width="3.98545" height="3.98545" fill="#41893F"/>
<rect x="62.7852" y="29.4651" width="3.98545" height="3.98545" fill="#41893F"/>
<rect x="58.7998" y="29.4651" width="3.98545" height="3.98545" fill="#41893F"/>
<rect x="66.7705" y="29.4651" width="3.98545" height="3.98545" fill="#41893F"/>
<rect x="70.7559" y="25.4795" width="3.98545" height="3.98545" fill="#41893F"/>
<rect x="74.7412" y="25.4795" width="3.98545" height="3.98545" fill="#41893F"/>
<rect x="54.8145" y="33.4504" width="3.98545" height="3.98545" fill="#41893F"/>
<rect x="54.8145" y="37.436" width="3.98545" height="3.98545" fill="#41893F"/>
<rect x="50.8291" y="37.436" width="3.98545" height="3.98545" fill="#41893F"/>
<rect x="50.8291" y="41.4214" width="3.98545" height="3.98545" fill="#41893F"/>
<rect x="46.8438" y="45.4067" width="3.98545" height="3.98545" fill="#41893F"/>
<rect x="46.8438" y="49.3923" width="3.98545" height="3.98545" fill="#41893F"/>
<rect x="46.8438" y="53.3777" width="3.98545" height="3.98545" fill="#41893F"/>
<rect x="46.8438" y="57.3633" width="3.98545" height="3.98545" fill="#41893F"/>
<rect x="46.8438" y="61.3486" width="3.98545" height="3.98545" fill="#41893F"/>
<rect x="50.8291" y="65.334" width="3.98545" height="3.98545" fill="#41893F"/>
<rect x="54.8145" y="69.3196" width="3.98545" height="3.98545" fill="#41893F"/>
<rect x="58.7998" y="73.3049" width="3.98545" height="3.98545" fill="#41893F"/>
<rect x="62.7852" y="73.3049" width="3.98545" height="3.98545" fill="#41893F"/>
<path d="M58.1171 34.8713C59.2963 33.9122 58.1436 33.2986 59.5697 32.7282C60.034 31.7996 62.9438 31.4702 63.856 31.097C65.5823 30.3908 67.113 29.0756 68.7852 28.2395C70.6699 27.2971 72.7696 26.9065 74.786 26.3464C77.6971 25.5377 84.4738 24.4279 86.4542 27.5965C87.3685 29.0593 87.5094 30.616 88.8117 31.8709C89.7163 32.7426 92.0119 33.2744 91.6097 34.8832C90.7061 38.4976 88.322 41.6342 86.2161 44.6464C82.1593 50.4492 77.2046 56.7615 71.0474 60.4461C64.8476 64.1563 54.8013 65.8514 48.3063 61.8749C45.2946 60.031 45.032 56.6956 44.1538 53.3776C43.6396 51.4354 44.0366 46.249 45.6392 44.6464C46.4573 43.8283 44.7511 44.446 45.6393 43.7058C47.5992 42.0726 49.9513 41.0614 51.9973 39.5505C54.0691 38.0205 56.1186 36.4968 58.1171 34.8713Z" fill="#A1CB3C" stroke="#A1CB3C" stroke-width="3" stroke-linecap="round"/>
<rect x="58.7998" y="29.4651" width="3.98545" height="3.98545" fill="#A1CB3C"/>
<rect x="58.7998" y="33.4504" width="3.98545" height="3.98545" fill="#A1CB3C"/>
<rect x="54.8145" y="33.4504" width="3.98545" height="3.98545" fill="#A1CB3C"/>
<rect x="50.8291" y="37.436" width="3.98545" height="3.98545" fill="#A1CB3C"/>
<rect x="46.8438" y="41.4214" width="3.98545" height="3.98545" fill="#A1CB3C"/>
<rect x="42.8584" y="41.4214" width="3.98545" height="3.98545" fill="#A1CB3C"/>
<rect x="42.8584" y="45.407" width="3.98545" height="3.98545" fill="#A1CB3C"/>
<rect x="42.8584" y="49.3923" width="3.98545" height="3.98545" fill="#A1CB3C"/>
<rect x="42.8584" y="53.3777" width="3.98545" height="3.98545" fill="#A1CB3C"/>
<rect x="42.8584" y="57.3633" width="3.98545" height="3.98545" fill="#A1CB3C"/>
<rect x="46.8438" y="61.3486" width="3.98545" height="3.98545" fill="#A1CB3C"/>
<rect x="50.8291" y="61.3486" width="3.98545" height="3.98545" fill="#A1CB3C"/>
<rect x="62.7852" y="61.3486" width="3.98545" height="3.98545" fill="#A1CB3C"/>
<rect x="54.8145" y="61.3486" width="3.98545" height="3.98545" fill="#A1CB3C"/>
<rect x="58.7998" y="61.3486" width="3.98545" height="3.98545" fill="#A1CB3C"/>
<rect x="66.7705" y="61.3486" width="3.98545" height="3.98545" fill="#A1CB3C"/>
<rect x="70.7559" y="57.3633" width="3.98545" height="3.98545" fill="#A1CB3C"/>
<rect x="82.7129" y="45.407" width="3.98545" height="3.98545" fill="#A1CB3C"/>
<rect x="78.7275" y="49.3923" width="3.98545" height="3.98545" fill="#A1CB3C"/>
<rect x="74.7412" y="53.3777" width="3.98545" height="3.98545" fill="#A1CB3C"/>
<rect x="86.6982" y="41.4214" width="3.98545" height="3.98545" fill="#A1CB3C"/>
<rect x="90.6836" y="33.4504" width="3.98545" height="3.98545" fill="#A1CB3C"/>
<rect x="86.6982" y="37.436" width="3.98545" height="3.98545" fill="#A1CB3C"/>
<rect x="86.6982" y="29.4651" width="3.98545" height="3.98545" fill="#A1CB3C"/>
<rect x="86.6982" y="25.4795" width="3.98545" height="3.98545" fill="#A1CB3C"/>
<rect x="74.7412" y="25.4795" width="3.98545" height="3.98545" fill="#A1CB3C"/>
<rect x="78.7275" y="21.4941" width="3.98545" height="3.98545" fill="#A1CB3C"/>
<rect x="82.7129" y="25.4795" width="3.98545" height="3.98545" fill="#A1CB3C"/>
<rect x="66.7705" y="25.4795" width="3.98545" height="3.98545" fill="#A1CB3C"/>
<rect x="70.7559" y="25.4795" width="3.98545" height="3.98545" fill="#A1CB3C"/>
<rect x="62.7852" y="29.4651" width="3.98545" height="3.98545" fill="#A1CB3C"/>
<path d="M105.182 44.4664C105.32 42.1839 107.291 39.767 109.675 39.5503C111.293 39.5503 111.939 40.1971 113.339 40.8968C114.605 41.5297 117.566 41.9058 117.566 43.6366C117.566 48.3743 109.22 48.8592 106.199 48.1301C104.617 47.7481 105.102 45.7745 105.182 44.4664Z" fill="#A1CB3C" stroke="#A1CB3C" stroke-width="3" stroke-linecap="round"/>
<rect x="102.641" y="41.4214" width="3.98545" height="3.98545" fill="#A1CB3C"/>
<rect x="106.626" y="37.436" width="3.98545" height="3.98545" fill="#A1CB3C"/>
<rect x="102.641" y="45.407" width="3.98545" height="3.98545" fill="#A1CB3C"/>
<rect x="114.597" y="45.407" width="3.98545" height="3.98545" fill="#A1CB3C"/>
<rect x="106.626" y="45.407" width="3.98545" height="3.98545" fill="#A1CB3C"/>
<rect x="110.611" y="45.407" width="3.98545" height="3.98545" fill="#A1CB3C"/>
<rect x="114.597" y="41.4214" width="3.98545" height="3.98545" fill="#A1CB3C"/>
<rect x="110.611" y="37.436" width="3.98545" height="3.98545" fill="#A1CB3C"/>
<path d="M20.1523 32.8037C23.3697 30.4646 23.6261 30.0547 27.5396 30.0547C27.5396 27.4257 30.8623 28.7014 33.4292 27.7061C39.3098 25.4259 44.8117 24.5264 51.3631 24.5264C54.5667 24.5264 56.2363 25.3169 58.9706 26.7976C64.4152 29.7459 70.242 32.9294 75.0822 36.589C80.8573 40.9557 85.9384 46.0567 84.9747 53.1184C84.1194 59.3865 82.6511 66.3395 79.2185 71.9695C76.1106 77.067 70.6838 82.3573 64.4086 84.4864C57.9709 86.6706 49.3644 85.3486 42.6565 84.8397C31.3272 83.9802 19.3991 79.8461 10.7804 73.4836C7.04738 70.7279 2.62246 66.5254 2.04485 62.1276C1.33341 56.7107 2.07524 51.7549 5.28452 47.0366C9.24102 41.2197 14.2744 37.0771 20.1523 32.8037Z" fill="#073018" stroke="#094C25" stroke-width="3" stroke-linecap="round"/>
<rect x="20.9277" y="27.3162" width="3.98545" height="3.98545" fill="#094C25"/>
<rect x="24.9131" y="27.3162" width="3.98545" height="3.98545" fill="#094C25"/>
<rect x="16.9414" y="31.3018" width="3.98545" height="3.98545" fill="#094C25"/>
<rect x="12.9561" y="35.2871" width="3.98545" height="3.98545" fill="#094C25"/>
<rect x="8.9707" y="39.2727" width="3.98545" height="3.98545" fill="#094C25"/>
<rect x="4.98535" y="43.2581" width="3.98545" height="3.98545" fill="#094C25"/>
<rect x="1" y="47.2434" width="3.98545" height="3.98545" fill="#094C25"/>
<rect x="1" y="51.229" width="3.98545" height="3.98545" fill="#094C25"/>
<rect x="1" y="55.2144" width="3.98545" height="3.98545" fill="#094C25"/>
<rect x="1" y="59.2" width="3.98545" height="3.98545" fill="#094C25"/>
<rect x="1" y="63.1853" width="3.98545" height="3.98545" fill="#094C25"/>
<rect x="4.98535" y="67.1707" width="3.98545" height="3.98545" fill="#094C25"/>
<rect x="8.9707" y="71.1562" width="3.98545" height="3.98545" fill="#094C25"/>
<rect x="12.9561" y="75.1416" width="3.98545" height="3.98545" fill="#094C25"/>
<rect x="24.9131" y="79.1272" width="3.98545" height="3.98545" fill="#094C25"/>
<rect x="16.9414" y="75.1416" width="3.98545" height="3.98545" fill="#094C25"/>
<rect x="20.9277" y="79.1272" width="3.98545" height="3.98545" fill="#094C25"/>
<rect x="28.8984" y="79.1272" width="3.98545" height="3.98545" fill="#094C25"/>
<rect x="32.8838" y="83.1125" width="3.98545" height="3.98545" fill="#094C25"/>
<rect x="36.8691" y="83.1125" width="3.98545" height="3.98545" fill="#094C25"/>
<rect x="40.8545" y="83.1125" width="3.98545" height="3.98545" fill="#094C25"/>
<rect x="60.7822" y="83.1125" width="3.98545" height="3.98545" fill="#094C25"/>
<rect x="44.8398" y="83.1125" width="3.98545" height="3.98545" fill="#094C25"/>
<rect x="48.8252" y="83.1125" width="3.98545" height="3.98545" fill="#094C25"/>
<rect x="52.8105" y="83.1125" width="3.98545" height="3.98545" fill="#094C25"/>
<rect x="56.7969" y="83.1125" width="3.98545" height="3.98545" fill="#094C25"/>
<rect x="76.7236" y="71.1562" width="3.98545" height="3.98545" fill="#094C25"/>
<rect x="72.7383" y="75.1416" width="3.98545" height="3.98545" fill="#094C25"/>
<rect x="68.7529" y="79.1272" width="3.98545" height="3.98545" fill="#094C25"/>
<rect x="64.7676" y="83.1125" width="3.98545" height="3.98545" fill="#094C25"/>
<rect x="84.6943" y="51.229" width="3.98545" height="3.98545" fill="#094C25"/>
<rect x="80.709" y="55.2144" width="3.98545" height="3.98545" fill="#094C25"/>
<rect x="80.709" y="59.2" width="3.98545" height="3.98545" fill="#094C25"/>
<rect x="80.709" y="63.1853" width="3.98545" height="3.98545" fill="#094C25"/>
<rect x="80.709" y="67.1707" width="3.98545" height="3.98545" fill="#094C25"/>
<rect x="72.7383" y="35.2871" width="3.98545" height="3.98545" fill="#094C25"/>
<rect x="76.7236" y="39.2727" width="3.98545" height="3.98545" fill="#094C25"/>
<rect x="80.709" y="43.2581" width="3.98545" height="3.98545" fill="#094C25"/>
<rect x="84.6943" y="47.2434" width="3.98545" height="3.98545" fill="#094C25"/>
<rect x="60.7822" y="27.3162" width="3.98545" height="3.98545" fill="#094C25"/>
<rect x="68.7529" y="31.3018" width="3.98545" height="3.98545" fill="#094C25"/>
<rect x="64.7676" y="27.3162" width="3.98545" height="3.98545" fill="#094C25"/>
<rect x="56.7969" y="23.3308" width="3.98545" height="3.98545" fill="#094C25"/>
<rect x="52.8105" y="23.3308" width="3.98545" height="3.98545" fill="#094C25"/>
<rect x="48.8252" y="23.3308" width="3.98545" height="3.98545" fill="#094C25"/>
<rect x="40.8545" y="23.3308" width="3.98545" height="3.98545" fill="#094C25"/>
<rect x="32.8838" y="23.3308" width="3.98545" height="3.98545" fill="#094C25"/>
<rect x="36.8691" y="23.3308" width="3.98545" height="3.98545" fill="#094C25"/>
<rect x="44.8398" y="23.3308" width="3.98545" height="3.98545" fill="#094C25"/>
<rect x="32.8838" y="27.3162" width="3.98545" height="3.98545" fill="#094C25"/>
<rect x="28.8984" y="27.3162" width="3.98545" height="3.98545" fill="#094C25"/>
<path d="M39.0505 73.2479C35.1231 74.7805 30.8844 76.3833 26.606 76.3833C25.0361 79.5232 22.6067 78.3769 19.9456 77.0844C17.962 76.121 16.8009 74.0838 15.038 73.1505C11.7259 71.3971 10.9726 69.6707 8.27333 66.9714C5.508 64.2061 5.20874 59.4528 5.14474 55.6129C5.03886 49.26 7.61741 47.3775 12.3584 42.3802C15.1077 39.4824 14.918 35.4942 18.5359 34.5897C26.6784 32.5541 29.5194 30.8855 37.8653 29.2346C41.2208 28.5709 46.827 23.3835 49.9174 25.0476C53.167 26.7974 56.7772 27.911 60.2391 29.2347C62.8342 30.227 65.7467 31.5224 68.1459 32.9155C70.0731 34.0345 72.0042 34.8662 72.703 37.1025C73.4159 39.3837 72.4031 41.4229 70.2492 42.3802C69.2686 42.8161 69.374 45.9186 69.1976 46.801C68.3839 50.8695 67.7193 54.4905 65.5558 58.0964C64.79 59.3726 64.5342 59.6848 63.2188 59.2065C61.3052 58.5106 59.3081 58.5054 57.2984 58.5054C53.1553 58.5054 53.8469 60.5637 52.7218 63.9389C50.8604 69.5231 44.0635 71.2916 39.0505 73.2479Z" fill="#41893F"/>
<rect x="24.9131" y="75.1416" width="3.98545" height="3.98545" fill="#41893F"/>
<rect x="28.8984" y="75.1416" width="3.98545" height="3.98545" fill="#41893F"/>
<rect x="32.8838" y="71.1562" width="3.98545" height="3.98545" fill="#41893F"/>
<rect x="36.8691" y="71.1562" width="3.98545" height="3.98545" fill="#41893F"/>
<rect x="48.8252" y="63.1853" width="3.98545" height="3.98545" fill="#41893F"/>
<rect x="44.8398" y="67.1707" width="3.98545" height="3.98545" fill="#41893F"/>
<rect x="40.8545" y="71.1562" width="3.98545" height="3.98545" fill="#41893F"/>
<rect x="52.8105" y="59.2" width="3.98545" height="3.98545" fill="#41893F"/>
<rect x="52.8105" y="55.2144" width="3.98545" height="3.98545" fill="#41893F"/>
<rect x="56.7959" y="55.2144" width="3.98545" height="3.98545" fill="#41893F"/>
<rect x="60.7822" y="55.2144" width="3.98545" height="3.98545" fill="#41893F"/>
<rect x="60.7822" y="59.2" width="3.98545" height="3.98545" fill="#41893F"/>
<rect x="64.7676" y="55.2144" width="3.98545" height="3.98545" fill="#41893F"/>
<rect x="64.7676" y="47.2434" width="3.98545" height="3.98545" fill="#41893F"/>
<rect x="64.7676" y="51.229" width="3.98545" height="3.98545" fill="#41893F"/>
<rect x="68.7529" y="43.2581" width="3.98545" height="3.98545" fill="#41893F"/>
<rect x="68.7529" y="39.2727" width="3.98545" height="3.98545" fill="#41893F"/>
<rect x="72.7383" y="35.2871" width="3.98545" height="3.98545" fill="#41893F"/>
<rect x="68.7529" y="35.2871" width="3.98545" height="3.98545" fill="#41893F"/>
<rect x="68.7529" y="31.3018" width="3.98545" height="3.98545" fill="#41893F"/>
<rect x="64.7676" y="31.3018" width="3.98545" height="3.98545" fill="#41893F"/>
<rect x="56.7959" y="27.3162" width="3.98545" height="3.98545" fill="#41893F"/>
<rect x="60.7822" y="27.3162" width="3.98545" height="3.98545" fill="#41893F"/>
<rect x="48.8252" y="23.3308" width="3.98545" height="3.98545" fill="#41893F"/>
<rect x="52.8105" y="23.3308" width="3.98545" height="3.98545" fill="#41893F"/>
<rect x="44.8398" y="23.3308" width="3.98545" height="3.98545" fill="#41893F"/>
<rect x="36.8691" y="27.3162" width="3.98545" height="3.98545" fill="#41893F"/>
<rect x="40.8545" y="23.3308" width="3.98545" height="3.98545" fill="#41893F"/>
<rect x="20.9268" y="31.3018" width="3.98545" height="3.98545" fill="#41893F"/>
<rect x="16.9414" y="31.3018" width="3.98545" height="3.98545" fill="#41893F"/>
<rect x="24.9131" y="31.3018" width="3.98545" height="3.98545" fill="#41893F"/>
<rect x="28.8984" y="27.3162" width="3.98545" height="3.98545" fill="#41893F"/>
<rect x="32.8838" y="27.3162" width="3.98545" height="3.98545" fill="#41893F"/>
<rect x="12.9561" y="35.2871" width="3.98545" height="3.98545" fill="#41893F"/>
<rect x="12.9561" y="39.2727" width="3.98545" height="3.98545" fill="#41893F"/>
<rect x="8.9707" y="39.2727" width="3.98545" height="3.98545" fill="#41893F"/>
<rect x="8.9707" y="43.2581" width="3.98545" height="3.98545" fill="#41893F"/>
<rect x="4.98535" y="47.2434" width="3.98545" height="3.98545" fill="#41893F"/>
<rect x="4.98535" y="51.229" width="3.98545" height="3.98545" fill="#41893F"/>
<rect x="4.98535" y="55.2144" width="3.98545" height="3.98545" fill="#41893F"/>
<rect x="4.98535" y="59.2" width="3.98545" height="3.98545" fill="#41893F"/>
<rect x="4.98535" y="63.1853" width="3.98545" height="3.98545" fill="#41893F"/>
<rect x="8.9707" y="67.1707" width="3.98545" height="3.98545" fill="#41893F"/>
<rect x="12.9561" y="71.1562" width="3.98545" height="3.98545" fill="#41893F"/>
<rect x="16.9414" y="75.1416" width="3.98545" height="3.98545" fill="#41893F"/>
<rect x="20.9268" y="75.1416" width="3.98545" height="3.98545" fill="#41893F"/>
<path d="M23.387 36.397C24.6763 35.3217 23.4159 34.6336 24.9752 33.994C25.4828 32.9528 28.6643 32.5834 29.6617 32.165C31.5493 31.3731 33.2228 29.8984 35.0512 28.9609C37.1119 27.9043 39.4077 27.4663 41.6124 26.8382C44.7953 25.9315 52.2048 24.687 54.3701 28.24C55.3697 29.8802 55.5239 31.6257 56.9477 33.0328C57.9368 34.0102 60.4467 34.6065 60.007 36.4104C59.019 40.4632 56.4123 43.9801 54.1098 47.3577C49.6741 53.8642 44.2568 60.9421 37.5247 65.0735C30.7459 69.2336 19.7615 71.1343 12.6601 66.6756C9.36717 64.6081 9.08009 60.8682 8.11979 57.1478C7.55767 54.9701 7.99173 49.1546 9.74398 47.3577C10.6385 46.4404 8.77287 47.1329 9.74401 46.303C11.8869 44.4717 14.4587 43.3378 16.6957 41.6437C18.961 39.9282 21.2019 38.2196 23.387 36.397Z" fill="#A1CB3C" stroke="#A1CB3C" stroke-width="3" stroke-linecap="round"/>
<rect x="24.1348" y="30.335" width="4.3576" height="4.4688" fill="#A1CB3C"/>
<rect x="24.1348" y="34.804" width="4.3576" height="4.4688" fill="#A1CB3C"/>
<rect x="19.7773" y="34.804" width="4.3576" height="4.4688" fill="#A1CB3C"/>
<rect x="15.4189" y="39.2727" width="4.3576" height="4.4688" fill="#A1CB3C"/>
<rect x="11.0615" y="43.7415" width="4.3576" height="4.4688" fill="#A1CB3C"/>
<rect x="6.7041" y="43.7415" width="4.3576" height="4.4688" fill="#A1CB3C"/>
<rect x="6.7041" y="48.2102" width="4.3576" height="4.4688" fill="#A1CB3C"/>
<rect x="6.7041" y="52.679" width="4.3576" height="4.4688" fill="#A1CB3C"/>
<rect x="6.7041" y="57.1479" width="4.3576" height="4.4688" fill="#A1CB3C"/>
<rect x="6.7041" y="61.6167" width="4.3576" height="4.4688" fill="#A1CB3C"/>
<rect x="11.0615" y="66.0854" width="4.3576" height="4.4688" fill="#A1CB3C"/>
<rect x="15.4189" y="66.0854" width="4.3576" height="4.4688" fill="#A1CB3C"/>
<rect x="28.4922" y="66.0854" width="4.3576" height="4.4688" fill="#A1CB3C"/>
<rect x="19.7773" y="66.0854" width="4.3576" height="4.4688" fill="#A1CB3C"/>
<rect x="24.1348" y="66.0854" width="4.3576" height="4.4688" fill="#A1CB3C"/>
<rect x="32.8496" y="66.0854" width="4.3576" height="4.4688" fill="#A1CB3C"/>
<rect x="37.207" y="61.6167" width="4.3576" height="4.4688" fill="#A1CB3C"/>
<rect x="50.2803" y="48.2102" width="4.3576" height="4.4688" fill="#A1CB3C"/>
<rect x="45.9229" y="52.679" width="4.3576" height="4.4688" fill="#A1CB3C"/>
<rect x="41.5645" y="57.1479" width="4.3576" height="4.4688" fill="#A1CB3C"/>
<rect x="54.6377" y="43.7415" width="4.3576" height="4.4688" fill="#A1CB3C"/>
<rect x="58.9951" y="34.804" width="4.3576" height="4.4688" fill="#A1CB3C"/>
<rect x="54.6377" y="39.2727" width="4.3576" height="4.4688" fill="#A1CB3C"/>
<rect x="54.6377" y="30.335" width="4.3576" height="4.4688" fill="#A1CB3C"/>
<rect x="54.6377" y="25.8662" width="4.3576" height="4.4688" fill="#A1CB3C"/>
<rect x="41.5645" y="25.8662" width="4.3576" height="4.4688" fill="#A1CB3C"/>
<rect x="45.9229" y="21.3975" width="4.3576" height="4.4688" fill="#A1CB3C"/>
<rect x="50.2803" y="25.8662" width="4.3576" height="4.4688" fill="#A1CB3C"/>
<rect x="32.8496" y="25.8662" width="4.3576" height="4.4688" fill="#A1CB3C"/>
<rect x="37.207" y="25.8662" width="4.3576" height="4.4688" fill="#A1CB3C"/>
<rect x="28.4922" y="30.335" width="4.3576" height="4.4688" fill="#A1CB3C"/>
<path d="M65.6678 67.2617C71.2425 61.0589 80.5434 60.4731 88.2903 60.4731C88.8745 60.4731 89.3767 60.9369 89.9483 60.9705C90.3796 60.9959 91.1746 61.2494 91.6063 61.4311C93.5116 62.2333 94.2796 64.6812 95.2539 66.359C96.1409 67.8867 97.6588 69.6591 96.4053 71.3514C93.5216 75.2443 87.5504 75.4338 83.1689 75.3859C77.8122 75.3274 71.1946 75.5395 66.5152 72.5028C64.5607 71.2345 64.0387 69.0743 65.6678 67.2617Z" fill="#073018" stroke="#073018" stroke-width="3" stroke-linecap="round"/>
<rect x="77.6592" y="60.0654" width="1.93341" height="1.9334" fill="#073018"/>
<rect x="69.9248" y="61.9988" width="1.93341" height="1.9334" fill="#073018"/>
<rect x="67.9922" y="63.9321" width="1.93341" height="1.9334" fill="#073018"/>
<rect x="66.0586" y="65.8657" width="1.93341" height="1.9334" fill="#073018"/>
<rect x="71.8584" y="61.9988" width="1.93341" height="1.9334" fill="#073018"/>
<rect x="73.792" y="60.0654" width="1.93341" height="1.9334" fill="#073018"/>
<rect x="75.7256" y="60.0654" width="1.93341" height="1.9334" fill="#073018"/>
<rect x="79.5928" y="60.0654" width="1.93341" height="1.9334" fill="#073018"/>
<rect x="81.5254" y="60.0654" width="1.93341" height="1.9334" fill="#073018"/>
<rect x="83.459" y="60.0654" width="1.93341" height="1.9334" fill="#073018"/>
<rect x="85.3926" y="60.0654" width="1.93341" height="1.9334" fill="#073018"/>
<rect x="87.3262" y="60.0654" width="1.93341" height="1.9334" fill="#073018"/>
<rect x="64.125" y="65.8657" width="1.93341" height="1.9334" fill="#073018"/>
<rect x="64.125" y="67.7991" width="1.93341" height="1.9334" fill="#073018"/>
<rect x="64.125" y="69.7324" width="1.93341" height="1.9334" fill="#073018"/>
<rect x="66.0586" y="71.6658" width="1.93341" height="1.9334" fill="#073018"/>
<rect x="69.9248" y="73.5994" width="1.93341" height="1.9334" fill="#073018"/>
<rect x="67.9922" y="73.5994" width="1.93341" height="1.9334" fill="#073018"/>
<rect x="71.8584" y="73.5994" width="1.93341" height="1.9334" fill="#073018"/>
<rect x="73.792" y="73.5994" width="1.93341" height="1.9334" fill="#073018"/>
<rect x="75.7256" y="73.5994" width="1.93341" height="1.9334" fill="#073018"/>
<rect x="77.6592" y="73.5994" width="1.93341" height="1.9334" fill="#073018"/>
<rect x="79.5928" y="73.5994" width="1.93341" height="1.9334" fill="#073018"/>
<rect x="81.5254" y="73.5994" width="1.93341" height="1.9334" fill="#073018"/>
<rect x="95.0596" y="71.6658" width="1.93341" height="1.9334" fill="#073018"/>
<rect x="91.1924" y="73.5994" width="1.93341" height="1.9334" fill="#073018"/>
<rect x="83.459" y="73.5994" width="1.93341" height="1.9334" fill="#073018"/>
<rect x="85.3926" y="73.5994" width="1.93341" height="1.9334" fill="#073018"/>
<rect x="87.3262" y="73.5994" width="1.93341" height="1.9334" fill="#073018"/>
<rect x="89.2588" y="73.5994" width="1.93341" height="1.9334" fill="#073018"/>
<rect x="93.126" y="71.6658" width="1.93341" height="1.9334" fill="#073018"/>
<rect x="95.0596" y="69.7324" width="1.93341" height="1.9334" fill="#073018"/>
<rect x="95.0596" y="65.8657" width="1.93341" height="1.9334" fill="#073018"/>
<rect x="95.0596" y="67.7991" width="1.93341" height="1.9334" fill="#073018"/>
<rect x="93.126" y="61.9988" width="1.93341" height="1.9334" fill="#073018"/>
<rect x="93.126" y="63.9321" width="1.93341" height="1.9334" fill="#073018"/>
<rect x="91.1924" y="60.0654" width="1.93341" height="1.9334" fill="#073018"/>
<rect x="89.2588" y="60.0654" width="1.93341" height="1.9334" fill="#073018"/>
<path d="M75.3946 76.4489C75.9571 76.4451 75.7262 76.4488 76.4029 76.5478C78.7647 77.1551 80.8442 77.0616 83.2052 77.6698C87.6045 78.8029 92.9322 80.1378 96.4876 83.1269C97.4507 83.9365 96.6312 84.1257 96.2229 84.7155C91.6968 91.2531 82.399 90.2813 75.3358 90.1579C69.9864 90.0645 64.5474 90.0152 59.2292 89.3783C57.1181 89.1255 54.0625 88.8147 52.5071 87.0984C50.8175 85.234 54.1824 82.1276 55.4195 81.2147C61.1583 76.9799 68.5214 76.4958 75.3946 76.4489Z" fill="black" stroke="#073018" stroke-width="3" stroke-linecap="round"/>
<rect x="75.6289" y="75.5327" width="1.93341" height="1.9334" fill="#073018"/>
<rect x="73.6963" y="75.5327" width="1.93341" height="1.9334" fill="#073018"/>
<rect x="71.7627" y="75.5327" width="1.93341" height="1.9334" fill="#073018"/>
<rect x="60.1621" y="77.4661" width="1.93341" height="1.9334" fill="#073018"/>
<rect x="56.2949" y="79.3997" width="1.93341" height="1.9334" fill="#073018"/>
<rect x="58.2285" y="77.4661" width="1.93341" height="1.9334" fill="#073018"/>
<rect x="62.0957" y="77.4661" width="1.93341" height="1.9334" fill="#073018"/>
<rect x="64.0293" y="75.5327" width="1.93341" height="1.9334" fill="#073018"/>
<rect x="65.9629" y="75.5327" width="1.93341" height="1.9334" fill="#073018"/>
<rect x="67.8955" y="75.5327" width="1.93341" height="1.9334" fill="#073018"/>
<rect x="69.8291" y="75.5327" width="1.93341" height="1.9334" fill="#073018"/>
<rect x="54.3623" y="79.3997" width="1.93341" height="1.9334" fill="#073018"/>
<rect x="52.4287" y="81.333" width="1.93341" height="1.9334" fill="#073018"/>
<rect x="52.4287" y="83.2664" width="1.93341" height="1.9334" fill="#073018"/>
<rect x="50.4951" y="85.1997" width="1.93341" height="1.9334" fill="#073018"/>
<rect x="52.4287" y="85.1997" width="1.93341" height="1.9334" fill="#073018"/>
<rect x="52.4287" y="87.1331" width="1.93341" height="1.9334" fill="#073018"/>
<rect x="54.3623" y="87.1331" width="1.93341" height="1.9334" fill="#073018"/>
<rect x="56.2949" y="89.0667" width="1.93341" height="1.9334" fill="#073018"/>
<rect x="58.2285" y="89.0667" width="1.93341" height="1.9334" fill="#073018"/>
<rect x="67.8955" y="89.0667" width="1.93341" height="1.9334" fill="#073018"/>
<rect x="60.1621" y="89.0667" width="1.93341" height="1.9334" fill="#073018"/>
<rect x="62.0957" y="89.0667" width="1.93341" height="1.9334" fill="#073018"/>
<rect x="64.0293" y="89.0667" width="1.93341" height="1.9334" fill="#073018"/>
<rect x="65.9629" y="89.0667" width="1.93341" height="1.9334" fill="#073018"/>
<rect x="69.8291" y="89.0667" width="1.93341" height="1.9334" fill="#073018"/>
<rect x="71.7627" y="89.0667" width="1.93341" height="1.9334" fill="#073018"/>
<rect x="73.6963" y="89.0667" width="1.93341" height="1.9334" fill="#073018"/>
<rect x="94.9639" y="85.1997" width="1.93341" height="1.9334" fill="#073018"/>
<rect x="91.0967" y="87.1331" width="1.93341" height="1.9334" fill="#073018"/>
<rect x="85.2969" y="89.0667" width="1.93341" height="1.9334" fill="#073018"/>
<rect x="75.6289" y="89.0667" width="1.93341" height="1.9334" fill="#073018"/>
<rect x="77.5625" y="89.0667" width="1.93341" height="1.9334" fill="#073018"/>
<rect x="79.4961" y="89.0667" width="1.93341" height="1.9334" fill="#073018"/>
<rect x="81.4297" y="89.0667" width="1.93341" height="1.9334" fill="#073018"/>
<rect x="83.3633" y="89.0667" width="1.93341" height="1.9334" fill="#073018"/>
<rect x="87.2295" y="89.0667" width="1.93341" height="1.9334" fill="#073018"/>
<rect x="89.1631" y="89.0667" width="1.93341" height="1.9334" fill="#073018"/>
<rect x="93.0303" y="85.1997" width="1.93341" height="1.9334" fill="#073018"/>
<rect x="94.9639" y="83.2664" width="1.93341" height="1.9334" fill="#073018"/>
<rect x="94.9639" y="81.333" width="1.93341" height="1.9334" fill="#073018"/>
<rect x="85.2969" y="77.4661" width="1.93341" height="1.9334" fill="#073018"/>
<rect x="91.0967" y="79.3997" width="1.93341" height="1.9334" fill="#073018"/>
<rect x="83.3633" y="77.4661" width="1.93341" height="1.9334" fill="#073018"/>
<rect x="87.2295" y="77.4661" width="1.93341" height="1.9334" fill="#073018"/>
<rect x="89.1631" y="79.3997" width="1.93341" height="1.9334" fill="#073018"/>
<rect x="93.0303" y="81.333" width="1.93341" height="1.9334" fill="#073018"/>
<rect x="81.4297" y="77.4661" width="1.93341" height="1.9334" fill="#073018"/>
<rect x="77.5625" y="75.5327" width="1.93341" height="1.9334" fill="#073018"/>
<rect x="79.4961" y="75.5327" width="1.93341" height="1.9334" fill="#073018"/>
<path d="M32.2305 26.455C33.9411 22.3728 38.6856 22.6406 42.4247 22.6406C43.6774 22.6406 44.6899 22.6112 45.4361 23.544C45.8692 24.0853 47.1033 23.8451 47.6891 23.8451C48.8585 23.8451 49.4463 24.3582 50.4551 24.8489C51.7085 25.4587 53.1519 25.9567 52.552 27.6707C52.0055 29.2321 50.378 29.8105 48.916 30.2695C44.5671 31.6348 40.0187 31.7366 35.4984 31.6637C34.5606 31.6485 31.3828 32.0905 31.3828 30.5483C31.3828 29.1642 31.6962 27.73 32.2305 26.455Z" fill="#1D3D1D" stroke="#1D3D1D" stroke-width="3" stroke-linecap="round"/>
<rect x="33.1914" y="23.3308" width="1.93341" height="1.9334" fill="#1D3D1D"/>
<rect x="31.2578" y="25.2644" width="1.93341" height="1.9334" fill="#1D3D1D"/>
<rect x="35.125" y="21.3975" width="1.93341" height="1.9334" fill="#1D3D1D"/>
<rect x="37.0576" y="21.3975" width="1.93341" height="1.9334" fill="#1D3D1D"/>
<rect x="38.9912" y="21.3975" width="1.93341" height="1.9334" fill="#1D3D1D"/>
<rect x="40.9248" y="21.3975" width="1.93341" height="1.9334" fill="#1D3D1D"/>
<rect x="31.2578" y="27.1978" width="1.93341" height="1.9334" fill="#1D3D1D"/>
<rect x="31.2578" y="29.1311" width="1.93341" height="1.9334" fill="#1D3D1D"/>
<rect x="31.2578" y="31.0645" width="1.93341" height="1.9334" fill="#1D3D1D"/>
<rect x="33.1914" y="31.0645" width="1.93341" height="1.9334" fill="#1D3D1D"/>
<rect x="35.125" y="31.0645" width="1.93341" height="1.9334" fill="#1D3D1D"/>
<rect x="37.0576" y="31.0645" width="1.93341" height="1.9334" fill="#1D3D1D"/>
<rect x="38.9912" y="31.0645" width="1.93341" height="1.9334" fill="#1D3D1D"/>
<rect x="40.9248" y="31.0645" width="1.93341" height="1.9334" fill="#1D3D1D"/>
<rect x="42.8584" y="31.0645" width="1.93341" height="1.9334" fill="#1D3D1D"/>
<rect x="44.792" y="29.1311" width="1.93341" height="1.9334" fill="#1D3D1D"/>
<rect x="46.7246" y="29.1311" width="1.93341" height="1.9334" fill="#1D3D1D"/>
<rect x="48.6582" y="29.1311" width="1.93341" height="1.9334" fill="#1D3D1D"/>
<rect x="50.5918" y="27.1978" width="1.93341" height="1.9334" fill="#1D3D1D"/>
<rect x="52.5254" y="27.1978" width="1.93341" height="1.9334" fill="#1D3D1D"/>
<rect x="50.5918" y="25.2644" width="1.93341" height="1.9334" fill="#1D3D1D"/>
<rect x="48.6582" y="23.3308" width="1.93341" height="1.9334" fill="#1D3D1D"/>
<rect x="46.7246" y="23.3308" width="1.93341" height="1.9334" fill="#1D3D1D"/>
<rect x="44.792" y="23.3308" width="1.93341" height="1.9334" fill="#1D3D1D"/>
<rect x="42.8584" y="21.3975" width="1.93341" height="1.9334" fill="#1D3D1D"/>
<path d="M50.2848 50.8838C53.3733 51.0755 55.8533 51.4013 58.6859 52.5631C60.475 53.2969 61.3614 53.6881 62.115 55.4897C63.1136 57.8768 61.0066 60.8087 58.5256 61.354C57.3885 61.6039 56.324 61.2883 55.1445 61.1977C52.2888 60.9781 49.3563 61.8484 46.4826 61.767C43.5415 61.6838 40.3836 60.8641 37.903 59.248C37.0868 58.7162 34.9367 57.6627 35.3224 56.3901C35.6988 55.1479 36.7437 54.244 37.7627 53.5151C41.494 50.8462 45.8206 50.6068 50.2848 50.8838Z" fill="#41893F" stroke="#458244" stroke-width="3" stroke-linecap="round"/>
<rect x="53.3818" y="49.7771" width="1.93341" height="1.9334" transform="rotate(22.3003 53.3818 49.7771)" fill="#458244"/>
<rect x="51.5928" y="49.0435" width="1.93341" height="1.9334" transform="rotate(22.3003 51.5928 49.0435)" fill="#458244"/>
<rect x="55.1709" y="50.5107" width="1.93341" height="1.9334" transform="rotate(22.3003 55.1709 50.5107)" fill="#458244"/>
<rect x="56.959" y="51.2444" width="1.93341" height="1.9334" transform="rotate(22.3003 56.959 51.2444)" fill="#458244"/>
<rect x="58.748" y="51.978" width="1.93341" height="1.9334" transform="rotate(22.3003 58.748 51.978)" fill="#458244"/>
<rect x="49.0703" y="50.0986" width="1.93341" height="1.9334" transform="rotate(22.3003 49.0703 50.0986)" fill="#458244"/>
<rect x="47.2812" y="49.365" width="1.93341" height="1.9334" transform="rotate(22.3003 47.2812 49.365)" fill="#458244"/>
<rect x="42.9707" y="49.6865" width="1.93341" height="1.9334" transform="rotate(22.3003 42.9707 49.6865)" fill="#458244"/>
<rect x="40.4482" y="50.7417" width="1.93341" height="1.9334" transform="rotate(22.3003 40.4482 50.7417)" fill="#458244"/>
<rect x="37.9258" y="51.7969" width="1.93341" height="1.9334" transform="rotate(22.3003 37.9258 51.7969)" fill="#458244"/>
<rect x="44.7588" y="50.4202" width="1.93341" height="1.9334" transform="rotate(22.3003 44.7588 50.4202)" fill="#458244"/>
<rect x="35.4033" y="52.8521" width="1.93341" height="1.9334" transform="rotate(22.3003 35.4033 52.8521)" fill="#458244"/>
<rect x="34.6699" y="54.6409" width="1.93341" height="1.9334" transform="rotate(22.3003 34.6699 54.6409)" fill="#458244"/>
<rect x="37.5137" y="57.897" width="1.93341" height="1.9334" transform="rotate(22.3003 37.5137 57.897)" fill="#458244"/>
<rect x="35.7246" y="57.1631" width="1.93341" height="1.9334" transform="rotate(22.3003 35.7246 57.1631)" fill="#458244"/>
<rect x="42.8799" y="60.0979" width="1.93341" height="1.9334" transform="rotate(22.3003 42.8799 60.0979)" fill="#458244"/>
<rect x="39.3018" y="58.6306" width="1.93341" height="1.9334" transform="rotate(22.3003 39.3018 58.6306)" fill="#458244"/>
<rect x="41.0908" y="59.3643" width="1.93341" height="1.9334" transform="rotate(22.3003 41.0908 59.3643)" fill="#458244"/>
<rect x="44.6689" y="60.8315" width="1.93341" height="1.9334" transform="rotate(22.3003 44.6689 60.8315)" fill="#458244"/>
<rect x="46.457" y="61.5652" width="1.93341" height="1.9334" transform="rotate(22.3003 46.457 61.5652)" fill="#458244"/>
<rect x="53.291" y="60.1885" width="1.93341" height="1.9334" transform="rotate(22.3003 53.291 60.1885)" fill="#458244"/>
<rect x="48.9795" y="60.51" width="1.93341" height="1.9334" transform="rotate(22.3003 48.9795 60.51)" fill="#458244"/>
<rect x="47.1914" y="59.7764" width="1.93341" height="1.9334" transform="rotate(22.3003 47.1914 59.7764)" fill="#458244"/>
<rect x="51.502" y="59.4548" width="1.93341" height="1.9334" transform="rotate(22.3003 51.502 59.4548)" fill="#458244"/>
<rect x="55.0801" y="60.9221" width="1.93341" height="1.9334" transform="rotate(22.3003 55.0801 60.9221)" fill="#458244"/>
<rect x="57.6025" y="59.8669" width="1.93341" height="1.9334" transform="rotate(22.3003 57.6025 59.8669)" fill="#458244"/>
<rect x="61.5918" y="55.2341" width="1.93341" height="1.9334" transform="rotate(22.3003 61.5918 55.2341)" fill="#458244"/>
<rect x="60.8584" y="57.0229" width="1.93341" height="1.9334" transform="rotate(22.3003 60.8584 57.0229)" fill="#458244"/>
<rect x="60.125" y="58.8118" width="1.93341" height="1.9334" transform="rotate(22.3003 60.125 58.8118)" fill="#458244"/>
<rect x="60.5371" y="52.7117" width="1.93341" height="1.9334" transform="rotate(22.3003 60.5371 52.7117)" fill="#458244"/>
<path d="M89.0961 73.5322C90.7748 73.5351 92.1162 73.6445 93.6186 74.2607C94.5676 74.6499 95.0367 74.86 95.3802 75.9526C95.8354 77.4004 94.5748 79.3041 93.2 79.7368C92.5699 79.9352 92.0007 79.7789 91.3603 79.7669C89.8098 79.7379 88.1763 80.3899 86.6107 80.4475C85.0084 80.5065 83.3156 80.1153 82.0224 79.2032C81.5969 78.903 80.463 78.3285 80.7214 77.5221C80.9737 76.7349 81.5781 76.1331 82.1618 75.6412C84.2991 73.84 86.6697 73.528 89.0961 73.5322Z" fill="#41893F" stroke="#458244" stroke-width="3" stroke-linecap="round"/>
<rect x="90.8281" y="72.7271" width="1.02549" height="1.23292" transform="rotate(22.3003 90.8281 72.7271)" fill="#458244"/>
<rect x="89.8799" y="72.3379" width="1.02549" height="1.23292" transform="rotate(22.3003 89.8799 72.3379)" fill="#458244"/>
<rect x="91.7773" y="73.1162" width="1.02549" height="1.23292" transform="rotate(22.3003 91.7773 73.1162)" fill="#458244"/>
<rect x="92.7256" y="73.5054" width="1.02549" height="1.23292" transform="rotate(22.3003 92.7256 73.5054)" fill="#458244"/>
<rect x="93.6748" y="73.8945" width="1.02549" height="1.23292" transform="rotate(22.3003 93.6748 73.8945)" fill="#458244"/>
<rect x="88.4629" y="73.0896" width="1.02549" height="1.23292" transform="rotate(22.3003 88.4629 73.0896)" fill="#458244"/>
<rect x="87.5137" y="72.7004" width="1.02549" height="1.23292" transform="rotate(22.3003 87.5137 72.7004)" fill="#458244"/>
<rect x="85.1484" y="73.0627" width="1.02549" height="1.23292" transform="rotate(22.3003 85.1484 73.0627)" fill="#458244"/>
<rect x="83.7324" y="73.8145" width="1.02549" height="1.23292" transform="rotate(22.3003 83.7324 73.8145)" fill="#458244"/>
<rect x="82.3154" y="74.5662" width="1.02549" height="1.23292" transform="rotate(22.3003 82.3154 74.5662)" fill="#458244"/>
<rect x="86.0977" y="73.4519" width="1.02549" height="1.23292" transform="rotate(22.3003 86.0977 73.4519)" fill="#458244"/>
<rect x="80.8984" y="75.3176" width="1.02549" height="1.23292" transform="rotate(22.3003 80.8984 75.3176)" fill="#458244"/>
<rect x="80.4307" y="76.4583" width="1.02549" height="1.23292" transform="rotate(22.3003 80.4307 76.4583)" fill="#458244"/>
<rect x="81.8604" y="78.3772" width="1.02549" height="1.23292" transform="rotate(22.3003 81.8604 78.3772)" fill="#458244"/>
<rect x="80.9121" y="77.988" width="1.02549" height="1.23292" transform="rotate(22.3003 80.9121 77.988)" fill="#458244"/>
<rect x="84.707" y="79.5447" width="1.02549" height="1.23292" transform="rotate(22.3003 84.707 79.5447)" fill="#458244"/>
<rect x="82.8096" y="78.7664" width="1.02549" height="1.23292" transform="rotate(22.3003 82.8096 78.7664)" fill="#458244"/>
<rect x="83.7578" y="79.1555" width="1.02549" height="1.23292" transform="rotate(22.3003 83.7578 79.1555)" fill="#458244"/>
<rect x="85.6562" y="79.9338" width="1.02549" height="1.23292" transform="rotate(22.3003 85.6562 79.9338)" fill="#458244"/>
<rect x="86.6045" y="80.323" width="1.02549" height="1.23292" transform="rotate(22.3003 86.6045 80.323)" fill="#458244"/>
<rect x="90.3867" y="79.209" width="1.02549" height="1.23292" transform="rotate(22.3003 90.3867 79.209)" fill="#458244"/>
<rect x="88.0215" y="79.5715" width="1.02549" height="1.23292" transform="rotate(22.3003 88.0215 79.5715)" fill="#458244"/>
<rect x="87.0723" y="79.1824" width="1.02549" height="1.23292" transform="rotate(22.3003 87.0723 79.1824)" fill="#458244"/>
<rect x="89.4375" y="78.8198" width="1.02549" height="1.23292" transform="rotate(22.3003 89.4375 78.8198)" fill="#458244"/>
<rect x="91.335" y="79.5981" width="1.02549" height="1.23292" transform="rotate(22.3003 91.335 79.5981)" fill="#458244"/>
<rect x="92.752" y="78.8464" width="1.02549" height="1.23292" transform="rotate(22.3003 92.752 78.8464)" fill="#458244"/>
<rect x="95.1045" y="75.8135" width="1.02549" height="1.23292" transform="rotate(22.3003 95.1045 75.8135)" fill="#458244"/>
<rect x="94.6367" y="76.9541" width="1.02549" height="1.23292" transform="rotate(22.3003 94.6367 76.9541)" fill="#458244"/>
<rect x="94.1689" y="78.095" width="1.02549" height="1.23292" transform="rotate(22.3003 94.1689 78.095)" fill="#458244"/>
<rect x="94.623" y="74.2837" width="1.02549" height="1.23292" transform="rotate(22.3003 94.623 74.2837)" fill="#458244"/>
<path d="M35.5104 29.0388C35.6157 27.8761 37.115 26.6451 38.9288 26.5347C40.1597 26.5347 40.6514 26.8641 41.7159 27.2205C42.679 27.5429 44.9318 27.7345 44.9318 28.6161C44.9318 31.0294 38.5825 31.2763 36.2846 30.905C35.0809 30.7104 35.4501 29.7051 35.5104 29.0388Z" fill="#A1CB3C" stroke="#A1CB3C" stroke-width="3" stroke-linecap="round"/>
<rect x="33.5771" y="27.4878" width="3.03193" height="2.03007" fill="#A1CB3C"/>
<rect x="36.6094" y="25.4578" width="3.03193" height="2.03007" fill="#A1CB3C"/>
<rect x="33.5771" y="29.5178" width="3.03193" height="2.03007" fill="#A1CB3C"/>
<rect x="42.6729" y="29.5178" width="3.03193" height="2.03007" fill="#A1CB3C"/>
<rect x="36.6094" y="29.5178" width="3.03193" height="2.03007" fill="#A1CB3C"/>
<rect x="39.6406" y="29.5178" width="3.03193" height="2.03007" fill="#A1CB3C"/>
<rect x="42.6729" y="27.4878" width="3.03193" height="2.03007" fill="#A1CB3C"/>
<rect x="39.6406" y="25.4578" width="3.03193" height="2.03007" fill="#A1CB3C"/>
</svg>
